<?xml version="1.0" encoding="UTF-8" standalone="no"?>
<!DOCTYPE svg PUBLIC "-//W3C//DTD SVG 1.1//EN"
 "http://www.w3.org/Graphics/SVG/1.1/DTD/svg11.dtd">
<!-- Generated by graphviz version 13.1.0 (20250701.0955)
 -->
<!-- Title: interface/driver_uvis25_interface.h Pages: 1 -->
<svg width="851pt" height="176pt"
 viewBox="0.00 0.00 851.00 176.00" xmlns="http://www.w3.org/2000/svg" xmlns:xlink="http://www.w3.org/1999/xlink">
<g id="graph0" class="graph" transform="scale(1 1) rotate(0) translate(4 172)">
<title>interface/driver_uvis25_interface.h</title>
<!-- Node1 -->
<g id="Node000001" class="node">
<title>Node1</title>
<g id="a_Node000001"><a xlink:title="driver uvis25 interface header file">
<polygon fill="#999999" stroke="#666666" points="509.88,-168 395.62,-168 395.62,-136 509.88,-136 509.88,-168"/>
<text xml:space="preserve" text-anchor="start" x="403.62" y="-154.5" font-family="Helvetica,sans-Serif" font-size="10.00">interface/driver_uvis25</text>
<text xml:space="preserve" text-anchor="middle" x="452.75" y="-142.5" font-family="Helvetica,sans-Serif" font-size="10.00">_interface.h</text>
</a>
</g>
</g>
<!-- Node2 -->
<g id="Node000002" class="node">
<title>Node2</title>
<g id="a_Node000002"><a xlink:href="driver__uvis25__basic_8h.html" target="_top" xlink:title="driver uvis25 basic header file">
<polygon fill="white" stroke="#666666" points="113.5,-100 0,-100 0,-68 113.5,-68 113.5,-100"/>
<text xml:space="preserve" text-anchor="start" x="8" y="-86.5" font-family="Helvetica,sans-Serif" font-size="10.00">example/driver_uvis25</text>
<text xml:space="preserve" text-anchor="middle" x="56.75" y="-74.5" font-family="Helvetica,sans-Serif" font-size="10.00">_basic.h</text>
</a>
</g>
</g>
<!-- Node1&#45;&gt;Node2 -->
<g id="edge1_Node000001_Node000002" class="edge">
<title>Node1&#45;&gt;Node2</title>
<g id="a_edge1_Node000001_Node000002"><a xlink:title=" ">
<path fill="none" stroke="#63b8ff" d="M384.08,-141.82C317.16,-132.54 212.65,-117.14 122.75,-100 119.86,-99.45 116.91,-98.86 113.94,-98.25"/>
<polygon fill="#63b8ff" stroke="#63b8ff" points="383.43,-145.26 393.81,-143.16 384.38,-138.33 383.43,-145.26"/>
</a>
</g>
</g>
<!-- Node4 -->
<g id="Node000004" class="node">
<title>Node4</title>
<g id="a_Node000004"><a xlink:href="driver__uvis25__interrupt_8h.html" target="_top" xlink:title="driver uvis25 interrupt header file">
<polygon fill="white" stroke="#666666" points="245.5,-100 132,-100 132,-68 245.5,-68 245.5,-100"/>
<text xml:space="preserve" text-anchor="start" x="140" y="-86.5" font-family="Helvetica,sans-Serif" font-size="10.00">example/driver_uvis25</text>
<text xml:space="preserve" text-anchor="middle" x="188.75" y="-74.5" font-family="Helvetica,sans-Serif" font-size="10.00">_interrupt.h</text>
</a>
</g>
</g>
<!-- Node1&#45;&gt;Node4 -->
<g id="edge3_Node000001_Node000004" class="edge">
<title>Node1&#45;&gt;Node4</title>
<g id="a_edge3_Node000001_Node000004"><a xlink:title=" ">
<path fill="none" stroke="#63b8ff" d="M384.2,-133.86C341.19,-123.11 286.4,-109.41 245.78,-99.26"/>
<polygon fill="#63b8ff" stroke="#63b8ff" points="383.12,-137.2 393.67,-136.23 384.82,-130.41 383.12,-137.2"/>
</a>
</g>
</g>
<!-- Node6 -->
<g id="Node000006" class="node">
<title>Node6</title>
<g id="a_Node000006"><a xlink:href="driver__uvis25__shot_8h.html" target="_top" xlink:title="driver uvis25 shot header file">
<polygon fill="white" stroke="#666666" points="377.5,-100 264,-100 264,-68 377.5,-68 377.5,-100"/>
<text xml:space="preserve" text-anchor="start" x="272" y="-86.5" font-family="Helvetica,sans-Serif" font-size="10.00">example/driver_uvis25</text>
<text xml:space="preserve" text-anchor="middle" x="320.75" y="-74.5" font-family="Helvetica,sans-Serif" font-size="10.00">_shot.h</text>
</a>
</g>
</g>
<!-- Node1&#45;&gt;Node6 -->
<g id="edge5_Node000001_Node000006" class="edge">
<title>Node1&#45;&gt;Node6</title>
<g id="a_edge5_Node000001_Node000006"><a xlink:title=" ">
<path fill="none" stroke="#63b8ff" d="M411.7,-130.47C392.25,-120.75 369.43,-109.34 351.5,-100.38"/>
<polygon fill="#63b8ff" stroke="#63b8ff" points="409.94,-133.51 420.45,-134.85 413.07,-127.25 409.94,-133.51"/>
</a>
</g>
</g>
<!-- Node8 -->
<g id="Node000008" class="node">
<title>Node8</title>
<g id="a_Node000008"><a xlink:href="driver__uvis25__interface__template_8c.html" target="_top" xlink:title="driver uvis25 interface template source file">
<polygon fill="white" stroke="#666666" points="509.88,-100 395.62,-100 395.62,-68 509.88,-68 509.88,-100"/>
<text xml:space="preserve" text-anchor="start" x="403.62" y="-86.5" font-family="Helvetica,sans-Serif" font-size="10.00">interface/driver_uvis25</text>
<text xml:space="preserve" text-anchor="middle" x="452.75" y="-74.5" font-family="Helvetica,sans-Serif" font-size="10.00">_interface_template.c</text>
</a>
</g>
</g>
<!-- Node1&#45;&gt;Node8 -->
<g id="edge7_Node000001_Node000008" class="edge">
<title>Node1&#45;&gt;Node8</title>
<g id="a_edge7_Node000001_Node000008"><a xlink:title=" ">
<path fill="none" stroke="#63b8ff" d="M452.75,-124.31C452.75,-116.12 452.75,-107.38 452.75,-100.22"/>
<polygon fill="#63b8ff" stroke="#63b8ff" points="449.25,-124.18 452.75,-134.18 456.25,-124.18 449.25,-124.18"/>
</a>
</g>
</g>
<!-- Node9 -->
<g id="Node000009" class="node">
<title>Node9</title>
<g id="a_Node000009"><a xlink:href="driver__uvis25__interrupt__test_8h.html" target="_top" xlink:title="driver uvis25 interrupt test header file">
<polygon fill="white" stroke="#666666" points="621.38,-100 528.12,-100 528.12,-68 621.38,-68 621.38,-100"/>
<text xml:space="preserve" text-anchor="start" x="536.12" y="-86.5" font-family="Helvetica,sans-Serif" font-size="10.00">test/driver_uvis25</text>
<text xml:space="preserve" text-anchor="middle" x="574.75" y="-74.5" font-family="Helvetica,sans-Serif" font-size="10.00">_interrupt_test.h</text>
</a>
</g>
</g>
<!-- Node1&#45;&gt;Node9 -->
<g id="edge8_Node000001_Node000009" class="edge">
<title>Node1&#45;&gt;Node9</title>
<g id="a_edge8_Node000001_Node000009"><a xlink:title=" ">
<path fill="none" stroke="#63b8ff" d="M491.44,-130.07C509.25,-120.44 529.99,-109.21 546.33,-100.38"/>
<polygon fill="#63b8ff" stroke="#63b8ff" points="489.81,-126.97 482.68,-134.81 493.15,-133.13 489.81,-126.97"/>
</a>
</g>
</g>
<!-- Node11 -->
<g id="Node000011" class="node">
<title>Node11</title>
<g id="a_Node000011"><a xlink:href="driver__uvis25__read__test_8h.html" target="_top" xlink:title="driver uvis25 read test header file">
<polygon fill="white" stroke="#666666" points="732.38,-100 639.12,-100 639.12,-68 732.38,-68 732.38,-100"/>
<text xml:space="preserve" text-anchor="start" x="647.12" y="-86.5" font-family="Helvetica,sans-Serif" font-size="10.00">test/driver_uvis25</text>
<text xml:space="preserve" text-anchor="middle" x="685.75" y="-74.5" font-family="Helvetica,sans-Serif" font-size="10.00">_read_test.h</text>
</a>
</g>
</g>
<!-- Node1&#45;&gt;Node11 -->
<g id="edge10_Node000001_Node000011" class="edge">
<title>Node1&#45;&gt;Node11</title>
<g id="a_edge10_Node000001_Node000011"><a xlink:title=" ">
<path fill="none" stroke="#63b8ff" d="M518.46,-132.39C556.84,-121.52 604.36,-108.05 638.94,-98.26"/>
<polygon fill="#63b8ff" stroke="#63b8ff" points="517.5,-129.02 508.83,-135.11 519.41,-135.76 517.5,-129.02"/>
</a>
</g>
</g>
<!-- Node13 -->
<g id="Node000013" class="node">
<title>Node13</title>
<g id="a_Node000013"><a xlink:href="driver__uvis25__register__test_8h.html" target="_top" xlink:title="driver uvis25 register test header file">
<polygon fill="white" stroke="#666666" points="843.38,-100 750.12,-100 750.12,-68 843.38,-68 843.38,-100"/>
<text xml:space="preserve" text-anchor="start" x="758.12" y="-86.5" font-family="Helvetica,sans-Serif" font-size="10.00">test/driver_uvis25</text>
<text xml:space="preserve" text-anchor="middle" x="796.75" y="-74.5" font-family="Helvetica,sans-Serif" font-size="10.00">_register_test.h</text>
</a>
</g>
</g>
<!-- Node1&#45;&gt;Node13 -->
<g id="edge12_Node000001_Node000013" class="edge">
<title>Node1&#45;&gt;Node13</title>
<g id="a_edge12_Node000001_Node000013"><a xlink:title=" ">
<path fill="none" stroke="#63b8ff" d="M521.73,-140.65C580.5,-131.4 667.06,-116.74 741.75,-100 744.36,-99.42 747.03,-98.79 749.72,-98.13"/>
<polygon fill="#63b8ff" stroke="#63b8ff" points="521.19,-137.19 511.85,-142.19 522.27,-144.11 521.19,-137.19"/>
</a>
</g>
</g>
<!-- Node3 -->
<g id="Node000003" class="node">
<title>Node3</title>
<g id="a_Node000003"><a xlink:href="driver__uvis25__basic_8c.html" target="_top" xlink:title="driver uvis25 basic source file">
<polygon fill="white" stroke="#666666" points="113.5,-32 0,-32 0,0 113.5,0 113.5,-32"/>
<text xml:space="preserve" text-anchor="start" x="8" y="-18.5" font-family="Helvetica,sans-Serif" font-size="10.00">example/driver_uvis25</text>
<text xml:space="preserve" text-anchor="middle" x="56.75" y="-6.5" font-family="Helvetica,sans-Serif" font-size="10.00">_basic.c</text>
</a>
</g>
</g>
<!-- Node2&#45;&gt;Node3 -->
<g id="edge2_Node000002_Node000003" class="edge">
<title>Node2&#45;&gt;Node3</title>
<g id="a_edge2_Node000002_Node000003"><a xlink:title=" ">
<path fill="none" stroke="#63b8ff" d="M56.75,-56.31C56.75,-48.12 56.75,-39.38 56.75,-32.22"/>
<polygon fill="#63b8ff" stroke="#63b8ff" points="53.25,-56.18 56.75,-66.18 60.25,-56.18 53.25,-56.18"/>
</a>
</g>
</g>
<!-- Node5 -->
<g id="Node000005" class="node">
<title>Node5</title>
<g id="a_Node000005"><a xlink:href="driver__uvis25__interrupt_8c.html" target="_top" xlink:title="driver uvis25 interrupt source file">
<polygon fill="white" stroke="#666666" points="245.5,-32 132,-32 132,0 245.5,0 245.5,-32"/>
<text xml:space="preserve" text-anchor="start" x="140" y="-18.5" font-family="Helvetica,sans-Serif" font-size="10.00">example/driver_uvis25</text>
<text xml:space="preserve" text-anchor="middle" x="188.75" y="-6.5" font-family="Helvetica,sans-Serif" font-size="10.00">_interrupt.c</text>
</a>
</g>
</g>
<!-- Node4&#45;&gt;Node5 -->
<g id="edge4_Node000004_Node000005" class="edge">
<title>Node4&#45;&gt;Node5</title>
<g id="a_edge4_Node000004_Node000005"><a xlink:title=" ">
<path fill="none" stroke="#63b8ff" d="M188.75,-56.31C188.75,-48.12 188.75,-39.38 188.75,-32.22"/>
<polygon fill="#63b8ff" stroke="#63b8ff" points="185.25,-56.18 188.75,-66.18 192.25,-56.18 185.25,-56.18"/>
</a>
</g>
</g>
<!-- Node7 -->
<g id="Node000007" class="node">
<title>Node7</title>
<g id="a_Node000007"><a xlink:href="driver__uvis25__shot_8c.html" target="_top" xlink:title="driver uvis25 shot source file">
<polygon fill="white" stroke="#666666" points="377.5,-32 264,-32 264,0 377.5,0 377.5,-32"/>
<text xml:space="preserve" text-anchor="start" x="272" y="-18.5" font-family="Helvetica,sans-Serif" font-size="10.00">example/driver_uvis25</text>
<text xml:space="preserve" text-anchor="middle" x="320.75" y="-6.5" font-family="Helvetica,sans-Serif" font-size="10.00">_shot.c</text>
</a>
</g>
</g>
<!-- Node6&#45;&gt;Node7 -->
<g id="edge6_Node000006_Node000007" class="edge">
<title>Node6&#45;&gt;Node7</title>
<g id="a_edge6_Node000006_Node000007"><a xlink:title=" ">
<path fill="none" stroke="#63b8ff" d="M320.75,-56.31C320.75,-48.12 320.75,-39.38 320.75,-32.22"/>
<polygon fill="#63b8ff" stroke="#63b8ff" points="317.25,-56.18 320.75,-66.18 324.25,-56.18 317.25,-56.18"/>
</a>
</g>
</g>
<!-- Node10 -->
<g id="Node000010" class="node">
<title>Node10</title>
<g id="a_Node000010"><a xlink:href="driver__uvis25__interrupt__test_8c.html" target="_top" xlink:title="driver uvis25 interrupt test source file">
<polygon fill="white" stroke="#666666" points="621.38,-32 528.12,-32 528.12,0 621.38,0 621.38,-32"/>
<text xml:space="preserve" text-anchor="start" x="536.12" y="-18.5" font-family="Helvetica,sans-Serif" font-size="10.00">test/driver_uvis25</text>
<text xml:space="preserve" text-anchor="middle" x="574.75" y="-6.5" font-family="Helvetica,sans-Serif" font-size="10.00">_interrupt_test.c</text>
</a>
</g>
</g>
<!-- Node9&#45;&gt;Node10 -->
<g id="edge9_Node000009_Node000010" class="edge">
<title>Node9&#45;&gt;Node10</title>
<g id="a_edge9_Node000009_Node000010"><a xlink:title=" ">
<path fill="none" stroke="#63b8ff" d="M574.75,-56.31C574.75,-48.12 574.75,-39.38 574.75,-32.22"/>
<polygon fill="#63b8ff" stroke="#63b8ff" points="571.25,-56.18 574.75,-66.18 578.25,-56.18 571.25,-56.18"/>
</a>
</g>
</g>
<!-- Node12 -->
<g id="Node000012" class="node">
<title>Node12</title>
<g id="a_Node000012"><a xlink:href="driver__uvis25__read__test_8c.html" target="_top" xlink:title="driver uvis25 read test source file">
<polygon fill="white" stroke="#666666" points="732.38,-32 639.12,-32 639.12,0 732.38,0 732.38,-32"/>
<text xml:space="preserve" text-anchor="start" x="647.12" y="-18.5" font-family="Helvetica,sans-Serif" font-size="10.00">test/driver_uvis25</text>
<text xml:space="preserve" text-anchor="middle" x="685.75" y="-6.5" font-family="Helvetica,sans-Serif" font-size="10.00">_read_test.c</text>
</a>
</g>
</g>
<!-- Node11&#45;&gt;Node12 -->
<g id="edge11_Node000011_Node000012" class="edge">
<title>Node11&#45;&gt;Node12</title>
<g id="a_edge11_Node000011_Node000012"><a xlink:title=" ">
<path fill="none" stroke="#63b8ff" d="M685.75,-56.31C685.75,-48.12 685.75,-39.38 685.75,-32.22"/>
<polygon fill="#63b8ff" stroke="#63b8ff" points="682.25,-56.18 685.75,-66.18 689.25,-56.18 682.25,-56.18"/>
</a>
</g>
</g>
<!-- Node14 -->
<g id="Node000014" class="node">
<title>Node14</title>
<g id="a_Node000014"><a xlink:href="driver__uvis25__register__test_8c.html" target="_top" xlink:title="driver uvis25 register test source file">
<polygon fill="white" stroke="#666666" points="843.38,-32 750.12,-32 750.12,0 843.38,0 843.38,-32"/>
<text xml:space="preserve" text-anchor="start" x="758.12" y="-18.5" font-family="Helvetica,sans-Serif" font-size="10.00">test/driver_uvis25</text>
<text xml:space="preserve" text-anchor="middle" x="796.75" y="-6.5" font-family="Helvetica,sans-Serif" font-size="10.00">_register_test.c</text>
</a>
</g>
</g>
<!-- Node13&#45;&gt;Node14 -->
<g id="edge13_Node000013_Node000014" class="edge">
<title>Node13&#45;&gt;Node14</title>
<g id="a_edge13_Node000013_Node000014"><a xlink:title=" ">
<path fill="none" stroke="#63b8ff" d="M796.75,-56.31C796.75,-48.12 796.75,-39.38 796.75,-32.22"/>
<polygon fill="#63b8ff" stroke="#63b8ff" points="793.25,-56.18 796.75,-66.18 800.25,-56.18 793.25,-56.18"/>
</a>
</g>
</g>
</g>
</svg>
