<?xml version="1.0" encoding="UTF-8" standalone="no"?>
<!DOCTYPE svg PUBLIC "-//W3C//DTD SVG 1.1//EN"
 "http://www.w3.org/Graphics/SVG/1.1/DTD/svg11.dtd">
<!-- Generated by graphviz version 13.1.0 (20250701.0955)
 -->
<!-- Title: uvis25_interrupt_deinit Pages: 1 -->
<svg width="303pt" height="66pt"
 viewBox="0.00 0.00 303.00 66.00" xmlns="http://www.w3.org/2000/svg" xmlns:xlink="http://www.w3.org/1999/xlink">
<g id="graph0" class="graph" transform="scale(1 1) rotate(0) translate(4 62)">
<title>uvis25_interrupt_deinit</title>
<!-- Node1 -->
<g id="Node000001" class="node">
<title>Node1</title>
<g id="a_Node000001"><a xlink:title="basic interrupt deinit">
<polygon fill="#999999" stroke="#666666" points="113.5,-39 0,-39 0,-19 113.5,-19 113.5,-39"/>
<text xml:space="preserve" text-anchor="middle" x="56.75" y="-25.5" font-family="Helvetica,sans-Serif" font-size="10.00">uvis25_interrupt_deinit</text>
</a>
</g>
</g>
<!-- Node2 -->
<g id="Node000002" class="node">
<title>Node2</title>
<g id="a_Node000002"><a xlink:href="group__uvis25__base__driver.html#ga278e4fac4301d6797b89dabbd462d8b5" target="_top" xlink:title="close the chip">
<polygon fill="white" stroke="#666666" points="258.5,-58 185.5,-58 185.5,-38 258.5,-38 258.5,-58"/>
<text xml:space="preserve" text-anchor="middle" x="222" y="-44.5" font-family="Helvetica,sans-Serif" font-size="10.00">uvis25_deinit</text>
</a>
</g>
</g>
<!-- Node1&#45;&gt;Node2 -->
<g id="edge1_Node000001_Node000002" class="edge">
<title>Node1&#45;&gt;Node2</title>
<g id="a_edge1_Node000001_Node000002"><a xlink:title=" ">
<path fill="none" stroke="#63b8ff" d="M113.93,-35.54C133.48,-37.81 155.2,-40.34 173.94,-42.52"/>
<polygon fill="#63b8ff" stroke="#63b8ff" points="173.33,-45.98 183.67,-43.66 174.14,-39.02 173.33,-45.98"/>
</a>
</g>
</g>
<!-- Node3 -->
<g id="Node000003" class="node">
<title>Node3</title>
<g id="a_Node000003"><a xlink:href="group__uvis25__base__driver.html#gaee6142aaef7f569f48d3f2aaabb5cf3c" target="_top" xlink:title="stop reading">
<polygon fill="white" stroke="#666666" points="294.5,-20 149.5,-20 149.5,0 294.5,0 294.5,-20"/>
<text xml:space="preserve" text-anchor="middle" x="222" y="-6.5" font-family="Helvetica,sans-Serif" font-size="10.00">uvis25_stop_continuous_read</text>
</a>
</g>
</g>
<!-- Node1&#45;&gt;Node3 -->
<g id="edge2_Node000001_Node000003" class="edge">
<title>Node1&#45;&gt;Node3</title>
<g id="a_edge2_Node000001_Node000003"><a xlink:title=" ">
<path fill="none" stroke="#63b8ff" d="M113.93,-22.46C121.64,-21.56 129.69,-20.63 137.76,-19.69"/>
<polygon fill="#63b8ff" stroke="#63b8ff" points="138.11,-23.17 147.64,-18.54 137.3,-16.22 138.11,-23.17"/>
</a>
</g>
</g>
</g>
</svg>
