<?xml version="1.0" encoding="UTF-8" standalone="no"?>
<!DOCTYPE svg PUBLIC "-//W3C//DTD SVG 1.1//EN"
 "http://www.w3.org/Graphics/SVG/1.1/DTD/svg11.dtd">
<!-- Generated by graphviz version 13.1.0 (20250701.0955)
 -->
<!-- Title: uvis25_basic_init Pages: 1 -->
<svg width="436pt" height="822pt"
 viewBox="0.00 0.00 436.00 822.00" xmlns="http://www.w3.org/2000/svg" xmlns:xlink="http://www.w3.org/1999/xlink">
<g id="graph0" class="graph" transform="scale(1 1) rotate(0) translate(4 818)">
<title>uvis25_basic_init</title>
<!-- Node1 -->
<g id="Node000001" class="node">
<title>Node1</title>
<g id="a_Node000001"><a xlink:title="basic example init">
<polygon fill="#999999" stroke="#666666" points="91,-408 0,-408 0,-388 91,-388 91,-408"/>
<text xml:space="preserve" text-anchor="middle" x="45.5" y="-394.5" font-family="Helvetica,sans-Serif" font-size="10.00">uvis25_basic_init</text>
</a>
</g>
</g>
<!-- Node2 -->
<g id="Node000002" class="node">
<title>Node2</title>
<g id="a_Node000002"><a xlink:href="group__uvis25__base__driver.html#ga278e4fac4301d6797b89dabbd462d8b5" target="_top" xlink:title="close the chip">
<polygon fill="white" stroke="#666666" points="236.38,-814 163.38,-814 163.38,-794 236.38,-794 236.38,-814"/>
<text xml:space="preserve" text-anchor="middle" x="199.88" y="-800.5" font-family="Helvetica,sans-Serif" font-size="10.00">uvis25_deinit</text>
</a>
</g>
</g>
<!-- Node1&#45;&gt;Node2 -->
<g id="edge1_Node000001_Node000002" class="edge">
<title>Node1&#45;&gt;Node2</title>
<g id="a_edge1_Node000001_Node000002"><a xlink:title=" ">
<path fill="none" stroke="#63b8ff" d="M47.22,-408.47C51.28,-464.45 73.06,-728.1 127,-785 133.7,-792.07 142.7,-796.62 152.05,-799.53"/>
<polygon fill="#63b8ff" stroke="#63b8ff" points="151.07,-802.89 161.62,-801.87 152.74,-796.09 151.07,-802.89"/>
</a>
</g>
</g>
<!-- Node3 -->
<g id="Node000003" class="node">
<title>Node3</title>
<g id="a_Node000003"><a xlink:href="group__uvis25__base__driver.html#ga1e958bb96b1e1f61b637e4d7de2a8af3" target="_top" xlink:title="initialize the chip">
<polygon fill="white" stroke="#666666" points="231.12,-776 168.62,-776 168.62,-756 231.12,-756 231.12,-776"/>
<text xml:space="preserve" text-anchor="middle" x="199.88" y="-762.5" font-family="Helvetica,sans-Serif" font-size="10.00">uvis25_init</text>
</a>
</g>
</g>
<!-- Node1&#45;&gt;Node3 -->
<g id="edge2_Node000001_Node000003" class="edge">
<title>Node1&#45;&gt;Node3</title>
<g id="a_edge2_Node000001_Node000003"><a xlink:title=" ">
<path fill="none" stroke="#63b8ff" d="M47.56,-408.26C53.08,-459.87 80.1,-690.55 127,-742 134.91,-750.68 146.04,-756.22 157.19,-759.76"/>
<polygon fill="#63b8ff" stroke="#63b8ff" points="156.19,-763.12 166.75,-762.29 157.98,-756.35 156.19,-763.12"/>
</a>
</g>
</g>
<!-- Node4 -->
<g id="Node000004" class="node">
<title>Node4</title>
<g id="a_Node000004"><a xlink:href="group__uvis25__interface__driver.html#ga3284f81bcf56261cd27cdee755e69c1f" target="_top" xlink:title="interface print format data">
<polygon fill="white" stroke="#666666" points="427.5,-615 308.75,-615 308.75,-583 427.5,-583 427.5,-615"/>
<text xml:space="preserve" text-anchor="start" x="316.75" y="-601.5" font-family="Helvetica,sans-Serif" font-size="10.00">uvis25_interface_debug</text>
<text xml:space="preserve" text-anchor="middle" x="368.12" y="-589.5" font-family="Helvetica,sans-Serif" font-size="10.00">_print</text>
</a>
</g>
</g>
<!-- Node1&#45;&gt;Node4 -->
<g id="edge3_Node000001_Node000004" class="edge">
<title>Node1&#45;&gt;Node4</title>
<g id="a_edge3_Node000001_Node000004"><a xlink:title=" ">
<path fill="none" stroke="#63b8ff" d="M47.5,-408.22C52.58,-457.58 77.16,-670.42 127,-709 178.22,-748.65 213.89,-736.05 272.75,-709 310.09,-691.84 338.2,-651.8 353.66,-625.06"/>
<polygon fill="#63b8ff" stroke="#63b8ff" points="356.6,-626.97 358.4,-616.53 350.48,-623.57 356.6,-626.97"/>
</a>
</g>
</g>
<!-- Node5 -->
<g id="Node000005" class="node">
<title>Node5</title>
<g id="a_Node000005"><a xlink:href="group__uvis25__interface__driver.html#gaf51569c1b40e78cc0230a292308a4655" target="_top" xlink:title="interface delay ms">
<polygon fill="white" stroke="#666666" points="267.12,-700 132.62,-700 132.62,-680 267.12,-680 267.12,-700"/>
<text xml:space="preserve" text-anchor="middle" x="199.88" y="-686.5" font-family="Helvetica,sans-Serif" font-size="10.00">uvis25_interface_delay_ms</text>
</a>
</g>
</g>
<!-- Node1&#45;&gt;Node5 -->
<g id="edge4_Node000001_Node000005" class="edge">
<title>Node1&#45;&gt;Node5</title>
<g id="a_edge4_Node000001_Node000005"><a xlink:title=" ">
<path fill="none" stroke="#63b8ff" d="M46.2,-408.46C45.64,-448.74 49.23,-595.4 127,-671 127.77,-671.75 128.56,-672.47 129.38,-673.16"/>
<polygon fill="#63b8ff" stroke="#63b8ff" points="127.42,-676.06 137.68,-678.73 131.32,-670.25 127.42,-676.06"/>
</a>
</g>
</g>
<!-- Node6 -->
<g id="Node000006" class="node">
<title>Node6</title>
<g id="a_Node000006"><a xlink:href="group__uvis25__interface__driver.html#ga55799866475f99cfaa87ee0ae36deab7" target="_top" xlink:title="interface iic bus deinit">
<polygon fill="white" stroke="#666666" points="251,-662 148.75,-662 148.75,-630 251,-630 251,-662"/>
<text xml:space="preserve" text-anchor="start" x="156.75" y="-648.5" font-family="Helvetica,sans-Serif" font-size="10.00">uvis25_interface_iic</text>
<text xml:space="preserve" text-anchor="middle" x="199.88" y="-636.5" font-family="Helvetica,sans-Serif" font-size="10.00">_deinit</text>
</a>
</g>
</g>
<!-- Node1&#45;&gt;Node6 -->
<g id="edge5_Node000001_Node000006" class="edge">
<title>Node1&#45;&gt;Node6</title>
<g id="a_edge5_Node000001_Node000006"><a xlink:title=" ">
<path fill="none" stroke="#63b8ff" d="M47.15,-408.05C49.93,-442.71 63.77,-558.5 127,-621 130.38,-624.34 134.24,-627.24 138.36,-629.75"/>
<polygon fill="#63b8ff" stroke="#63b8ff" points="136.54,-632.75 147.03,-634.24 139.76,-626.54 136.54,-632.75"/>
</a>
</g>
</g>
<!-- Node7 -->
<g id="Node000007" class="node">
<title>Node7</title>
<g id="a_Node000007"><a xlink:href="group__uvis25__interface__driver.html#ga505ad04f9302fe486387796a9cfba1fd" target="_top" xlink:title="interface iic bus init">
<polygon fill="white" stroke="#666666" points="260,-612 139.75,-612 139.75,-592 260,-592 260,-612"/>
<text xml:space="preserve" text-anchor="middle" x="199.88" y="-598.5" font-family="Helvetica,sans-Serif" font-size="10.00">uvis25_interface_iic_init</text>
</a>
</g>
</g>
<!-- Node1&#45;&gt;Node7 -->
<g id="edge6_Node000001_Node000007" class="edge">
<title>Node1&#45;&gt;Node7</title>
<g id="a_edge6_Node000001_Node000007"><a xlink:title=" ">
<path fill="none" stroke="#63b8ff" d="M47.82,-408.23C52.43,-439.5 70.66,-534.63 127,-583 128.13,-583.97 129.3,-584.89 130.51,-585.76"/>
<polygon fill="#63b8ff" stroke="#63b8ff" points="128.74,-588.78 139.13,-590.83 132.29,-582.75 128.74,-588.78"/>
</a>
</g>
</g>
<!-- Node8 -->
<g id="Node000008" class="node">
<title>Node8</title>
<g id="a_Node000008"><a xlink:href="group__uvis25__interface__driver.html#ga13d9dd4153da70195ad2d5fbe0d29fdf" target="_top" xlink:title="interface iic bus read">
<polygon fill="white" stroke="#666666" points="263,-574 136.75,-574 136.75,-554 263,-554 263,-574"/>
<text xml:space="preserve" text-anchor="middle" x="199.88" y="-560.5" font-family="Helvetica,sans-Serif" font-size="10.00">uvis25_interface_iic_read</text>
</a>
</g>
</g>
<!-- Node1&#45;&gt;Node8 -->
<g id="edge7_Node000001_Node000008" class="edge">
<title>Node1&#45;&gt;Node8</title>
<g id="a_edge7_Node000001_Node000008"><a xlink:title=" ">
<path fill="none" stroke="#63b8ff" d="M49.11,-408.4C56.44,-435.38 79.8,-508.06 127,-545 128.5,-546.18 130.07,-547.28 131.69,-548.31"/>
<polygon fill="#63b8ff" stroke="#63b8ff" points="129.67,-551.2 140.14,-552.82 132.97,-545.03 129.67,-551.2"/>
</a>
</g>
</g>
<!-- Node9 -->
<g id="Node000009" class="node">
<title>Node9</title>
<g id="a_Node000009"><a xlink:href="group__uvis25__interface__driver.html#ga7492a36d83184f850d0d35f114a6ad37" target="_top" xlink:title="interface iic bus write">
<polygon fill="white" stroke="#666666" points="251,-536 148.75,-536 148.75,-504 251,-504 251,-536"/>
<text xml:space="preserve" text-anchor="start" x="156.75" y="-522.5" font-family="Helvetica,sans-Serif" font-size="10.00">uvis25_interface_iic</text>
<text xml:space="preserve" text-anchor="middle" x="199.88" y="-510.5" font-family="Helvetica,sans-Serif" font-size="10.00">_write</text>
</a>
</g>
</g>
<!-- Node1&#45;&gt;Node9 -->
<g id="edge8_Node000001_Node000009" class="edge">
<title>Node1&#45;&gt;Node9</title>
<g id="a_edge8_Node000001_Node000009"><a xlink:title=" ">
<path fill="none" stroke="#63b8ff" d="M52.42,-408.36C64.16,-428.02 92.29,-470.93 127,-495 130.46,-497.4 134.17,-499.59 138.02,-501.59"/>
<polygon fill="#63b8ff" stroke="#63b8ff" points="136.53,-504.75 147.08,-505.78 139.48,-498.4 136.53,-504.75"/>
</a>
</g>
</g>
<!-- Node10 -->
<g id="Node000010" class="node">
<title>Node10</title>
<g id="a_Node000010"><a xlink:href="group__uvis25__interface__driver.html#ga42ef9eec163d3e0e473ff11bc903c553" target="_top" xlink:title="interface receive callback">
<polygon fill="white" stroke="#666666" points="261.88,-486 137.88,-486 137.88,-454 261.88,-454 261.88,-486"/>
<text xml:space="preserve" text-anchor="start" x="145.88" y="-472.5" font-family="Helvetica,sans-Serif" font-size="10.00">uvis25_interface_receive</text>
<text xml:space="preserve" text-anchor="middle" x="199.88" y="-460.5" font-family="Helvetica,sans-Serif" font-size="10.00">_callback</text>
</a>
</g>
</g>
<!-- Node1&#45;&gt;Node10 -->
<g id="edge9_Node000001_Node000010" class="edge">
<title>Node1&#45;&gt;Node10</title>
<g id="a_edge9_Node000001_Node000010"><a xlink:title=" ">
<path fill="none" stroke="#63b8ff" d="M62.35,-408.49C78.23,-418.71 103.63,-434.24 127,-445 130.3,-446.52 133.72,-448 137.2,-449.44"/>
<polygon fill="#63b8ff" stroke="#63b8ff" points="135.74,-452.62 146.33,-453.03 138.3,-446.11 135.74,-452.62"/>
</a>
</g>
</g>
<!-- Node11 -->
<g id="Node000011" class="node">
<title>Node11</title>
<g id="a_Node000011"><a xlink:href="group__uvis25__interface__driver.html#ga817e40be1da4fea806ee4526ecf081d8" target="_top" xlink:title="interface spi bus deinit">
<polygon fill="white" stroke="#666666" points="252.5,-436 147.25,-436 147.25,-404 252.5,-404 252.5,-436"/>
<text xml:space="preserve" text-anchor="start" x="155.25" y="-422.5" font-family="Helvetica,sans-Serif" font-size="10.00">uvis25_interface_spi</text>
<text xml:space="preserve" text-anchor="middle" x="199.88" y="-410.5" font-family="Helvetica,sans-Serif" font-size="10.00">_deinit</text>
</a>
</g>
</g>
<!-- Node1&#45;&gt;Node11 -->
<g id="edge11_Node000001_Node000011" class="edge">
<title>Node1&#45;&gt;Node11</title>
<g id="a_edge11_Node000001_Node000011"><a xlink:title=" ">
<path fill="none" stroke="#63b8ff" d="M91.39,-404.48C105.24,-406.48 120.77,-408.72 135.61,-410.87"/>
<polygon fill="#63b8ff" stroke="#63b8ff" points="134.9,-414.3 145.3,-412.26 135.9,-407.37 134.9,-414.3"/>
</a>
</g>
</g>
<!-- Node12 -->
<g id="Node000012" class="node">
<title>Node12</title>
<g id="a_Node000012"><a xlink:href="group__uvis25__interface__driver.html#ga6cf1d89b9a56e43020751a5010eb0804" target="_top" xlink:title="interface spi bus init">
<polygon fill="white" stroke="#666666" points="261.5,-386 138.25,-386 138.25,-366 261.5,-366 261.5,-386"/>
<text xml:space="preserve" text-anchor="middle" x="199.88" y="-372.5" font-family="Helvetica,sans-Serif" font-size="10.00">uvis25_interface_spi_init</text>
</a>
</g>
</g>
<!-- Node1&#45;&gt;Node12 -->
<g id="edge12_Node000001_Node000012" class="edge">
<title>Node1&#45;&gt;Node12</title>
<g id="a_edge12_Node000001_Node000012"><a xlink:title=" ">
<path fill="none" stroke="#63b8ff" d="M91.39,-391.52C102.55,-389.91 114.79,-388.14 126.89,-386.39"/>
<polygon fill="#63b8ff" stroke="#63b8ff" points="127.03,-389.91 136.43,-385.02 126.03,-382.98 127.03,-389.91"/>
</a>
</g>
</g>
<!-- Node13 -->
<g id="Node000013" class="node">
<title>Node13</title>
<g id="a_Node000013"><a xlink:href="group__uvis25__interface__driver.html#ga98adc356b0cdb969edc9180bdf83c408" target="_top" xlink:title="interface spi bus read">
<polygon fill="white" stroke="#666666" points="264.5,-348 135.25,-348 135.25,-328 264.5,-328 264.5,-348"/>
<text xml:space="preserve" text-anchor="middle" x="199.88" y="-334.5" font-family="Helvetica,sans-Serif" font-size="10.00">uvis25_interface_spi_read</text>
</a>
</g>
</g>
<!-- Node1&#45;&gt;Node13 -->
<g id="edge13_Node000001_Node000013" class="edge">
<title>Node1&#45;&gt;Node13</title>
<g id="a_edge13_Node000001_Node000013"><a xlink:title=" ">
<path fill="none" stroke="#63b8ff" d="M64.22,-387.59C80.21,-378.53 104.58,-365.56 127,-357 132.01,-355.09 137.29,-353.29 142.62,-351.63"/>
<polygon fill="#63b8ff" stroke="#63b8ff" points="143.49,-355.02 152.1,-348.84 141.52,-348.31 143.49,-355.02"/>
</a>
</g>
</g>
<!-- Node14 -->
<g id="Node000014" class="node">
<title>Node14</title>
<g id="a_Node000014"><a xlink:href="group__uvis25__interface__driver.html#ga7d7f7e63c40a77a784ff7e83b7659127" target="_top" xlink:title="interface spi bus write">
<polygon fill="white" stroke="#666666" points="252.5,-310 147.25,-310 147.25,-278 252.5,-278 252.5,-310"/>
<text xml:space="preserve" text-anchor="start" x="155.25" y="-296.5" font-family="Helvetica,sans-Serif" font-size="10.00">uvis25_interface_spi</text>
<text xml:space="preserve" text-anchor="middle" x="199.88" y="-284.5" font-family="Helvetica,sans-Serif" font-size="10.00">_write</text>
</a>
</g>
</g>
<!-- Node1&#45;&gt;Node14 -->
<g id="edge14_Node000001_Node000014" class="edge">
<title>Node1&#45;&gt;Node14</title>
<g id="a_edge14_Node000001_Node000014"><a xlink:title=" ">
<path fill="none" stroke="#63b8ff" d="M54.54,-387.55C67.89,-370.85 96.22,-338.1 127,-319 130.09,-317.08 133.34,-315.29 136.69,-313.62"/>
<polygon fill="#63b8ff" stroke="#63b8ff" points="137.92,-316.9 145.57,-309.58 135.02,-310.53 137.92,-316.9"/>
</a>
</g>
</g>
<!-- Node15 -->
<g id="Node000015" class="node">
<title>Node15</title>
<g id="a_Node000015"><a xlink:href="group__uvis25__base__driver.html#gaca7d218cc62eeebb8694a573b36567d3" target="_top" xlink:title="enable or disable blocking data update">
<polygon fill="white" stroke="#666666" points="257.75,-260 142,-260 142,-228 257.75,-228 257.75,-260"/>
<text xml:space="preserve" text-anchor="start" x="150" y="-246.5" font-family="Helvetica,sans-Serif" font-size="10.00">uvis25_set_block_data</text>
<text xml:space="preserve" text-anchor="middle" x="199.88" y="-234.5" font-family="Helvetica,sans-Serif" font-size="10.00">_update</text>
</a>
</g>
</g>
<!-- Node1&#45;&gt;Node15 -->
<g id="edge15_Node000001_Node000015" class="edge">
<title>Node1&#45;&gt;Node15</title>
<g id="a_edge15_Node000001_Node000015"><a xlink:title=" ">
<path fill="none" stroke="#63b8ff" d="M50.17,-387.64C59.3,-363.36 85.33,-302.27 127,-269 128.53,-267.78 130.12,-266.62 131.76,-265.51"/>
<polygon fill="#63b8ff" stroke="#63b8ff" points="133.44,-268.58 140.31,-260.52 129.91,-262.54 133.44,-268.58"/>
</a>
</g>
</g>
<!-- Node16 -->
<g id="Node000016" class="node">
<title>Node16</title>
<g id="a_Node000016"><a xlink:href="group__uvis25__base__driver.html#ga1172b75f390e411f8072bf0423b7a306" target="_top" xlink:title="set the boot mode">
<polygon fill="white" stroke="#666666" points="243.5,-210 156.25,-210 156.25,-190 243.5,-190 243.5,-210"/>
<text xml:space="preserve" text-anchor="middle" x="199.88" y="-196.5" font-family="Helvetica,sans-Serif" font-size="10.00">uvis25_set_boot</text>
</a>
</g>
</g>
<!-- Node1&#45;&gt;Node16 -->
<g id="edge16_Node000001_Node000016" class="edge">
<title>Node1&#45;&gt;Node16</title>
<g id="a_edge16_Node000001_Node000016"><a xlink:title=" ">
<path fill="none" stroke="#63b8ff" d="M48,-387.66C53.03,-356.95 72.16,-265.5 127,-219 132.36,-214.45 138.7,-210.98 145.35,-208.33"/>
<polygon fill="#63b8ff" stroke="#63b8ff" points="146.13,-211.76 154.52,-205.29 143.93,-205.11 146.13,-211.76"/>
</a>
</g>
</g>
<!-- Node17 -->
<g id="Node000017" class="node">
<title>Node17</title>
<g id="a_Node000017"><a xlink:href="group__uvis25__base__driver.html#ga208a53c989056d7afd5fcdadbda8458a" target="_top" xlink:title="enable or disable the chip iic">
<polygon fill="white" stroke="#666666" points="239,-172 160.75,-172 160.75,-152 239,-152 239,-172"/>
<text xml:space="preserve" text-anchor="middle" x="199.88" y="-158.5" font-family="Helvetica,sans-Serif" font-size="10.00">uvis25_set_iic</text>
</a>
</g>
</g>
<!-- Node1&#45;&gt;Node17 -->
<g id="edge17_Node000001_Node000017" class="edge">
<title>Node1&#45;&gt;Node17</title>
<g id="a_edge17_Node000001_Node000017"><a xlink:title=" ">
<path fill="none" stroke="#63b8ff" d="M47.11,-387.55C49.73,-352.66 63.03,-239.06 127,-181 133.38,-175.21 141.32,-171.15 149.57,-168.31"/>
<polygon fill="#63b8ff" stroke="#63b8ff" points="150.36,-171.72 159.04,-165.64 148.46,-164.98 150.36,-171.72"/>
</a>
</g>
</g>
<!-- Node18 -->
<g id="Node000018" class="node">
<title>Node18</title>
<g id="a_Node000018"><a xlink:href="group__uvis25__base__driver.html#ga4f11e19a22cbb6fae294c02ee19c77be" target="_top" xlink:title="set the chip interface">
<polygon fill="white" stroke="#666666" points="252.88,-134 146.88,-134 146.88,-114 252.88,-114 252.88,-134"/>
<text xml:space="preserve" text-anchor="middle" x="199.88" y="-120.5" font-family="Helvetica,sans-Serif" font-size="10.00">uvis25_set_interface</text>
</a>
</g>
</g>
<!-- Node1&#45;&gt;Node18 -->
<g id="edge18_Node000001_Node000018" class="edge">
<title>Node1&#45;&gt;Node18</title>
<g id="a_edge18_Node000001_Node000018"><a xlink:title=" ">
<path fill="none" stroke="#63b8ff" d="M46.45,-387.69C46.85,-349.28 53.6,-213.01 127,-143 129.84,-140.29 133.02,-137.96 136.42,-135.95"/>
<polygon fill="#63b8ff" stroke="#63b8ff" points="137.63,-139.25 145.12,-131.76 134.59,-132.94 137.63,-139.25"/>
</a>
</g>
</g>
<!-- Node19 -->
<g id="Node000019" class="node">
<title>Node19</title>
<g id="a_Node000019"><a xlink:href="group__uvis25__interrupt__driver.html#gae5f7f3fd6159d846f0bbefc1afa4feb7" target="_top" xlink:title="enable or disable the chip interrupt">
<polygon fill="white" stroke="#666666" points="251.75,-96 148,-96 148,-76 251.75,-76 251.75,-96"/>
<text xml:space="preserve" text-anchor="middle" x="199.88" y="-82.5" font-family="Helvetica,sans-Serif" font-size="10.00">uvis25_set_interrupt</text>
</a>
</g>
</g>
<!-- Node1&#45;&gt;Node19 -->
<g id="edge19_Node000001_Node000019" class="edge">
<title>Node1&#45;&gt;Node19</title>
<g id="a_edge19_Node000001_Node000019"><a xlink:title=" ">
<path fill="none" stroke="#63b8ff" d="M45.96,-387.67C44.36,-345.79 44.16,-187.04 127,-105 130.16,-101.87 133.77,-99.24 137.65,-97.03"/>
<polygon fill="#63b8ff" stroke="#63b8ff" points="138.78,-100.36 146.39,-92.99 135.85,-94.01 138.78,-100.36"/>
</a>
</g>
</g>
<!-- Node20 -->
<g id="Node000020" class="node">
<title>Node20</title>
<g id="a_Node000020"><a xlink:href="group__uvis25__base__driver.html#ga1893019907736cb60ebbd5772a81253a" target="_top" xlink:title="set the spi wire">
<polygon fill="white" stroke="#666666" points="252.12,-58 147.62,-58 147.62,-38 252.12,-38 252.12,-58"/>
<text xml:space="preserve" text-anchor="middle" x="199.88" y="-44.5" font-family="Helvetica,sans-Serif" font-size="10.00">uvis25_set_spi_wire</text>
</a>
</g>
</g>
<!-- Node1&#45;&gt;Node20 -->
<g id="edge20_Node000001_Node000020" class="edge">
<title>Node1&#45;&gt;Node20</title>
<g id="a_edge20_Node000001_Node000020"><a xlink:title=" ">
<path fill="none" stroke="#63b8ff" d="M47.59,-387.73C53.18,-337.13 80.11,-114.83 127,-67 129.98,-63.96 133.38,-61.4 137.04,-59.22"/>
<polygon fill="#63b8ff" stroke="#63b8ff" points="138.37,-62.47 145.89,-55 135.36,-56.15 138.37,-62.47"/>
</a>
</g>
</g>
<!-- Node21 -->
<g id="Node000021" class="node">
<title>Node21</title>
<g id="a_Node000021"><a xlink:href="group__uvis25__base__driver.html#gae847b48984698e27be7cd90a2e7b0908" target="_top" xlink:title="start reading">
<polygon fill="white" stroke="#666666" points="272.75,-20 127,-20 127,0 272.75,0 272.75,-20"/>
<text xml:space="preserve" text-anchor="middle" x="199.88" y="-6.5" font-family="Helvetica,sans-Serif" font-size="10.00">uvis25_start_continuous_read</text>
</a>
</g>
</g>
<!-- Node1&#45;&gt;Node21 -->
<g id="edge21_Node000001_Node000021" class="edge">
<title>Node1&#45;&gt;Node21</title>
<g id="a_edge21_Node000001_Node000021"><a xlink:title=" ">
<path fill="none" stroke="#63b8ff" d="M47.32,-387.66C51.84,-333.51 75.31,-83 127,-29 127.72,-28.25 128.47,-27.52 129.24,-26.82"/>
<polygon fill="#63b8ff" stroke="#63b8ff" points="130.98,-29.88 137.09,-21.23 126.91,-24.18 130.98,-29.88"/>
</a>
</g>
</g>
<!-- Node10&#45;&gt;Node4 -->
<g id="edge10_Node000010_Node000004" class="edge">
<title>Node10&#45;&gt;Node4</title>
<g id="a_edge10_Node000010_Node000004"><a xlink:title=" ">
<path fill="none" stroke="#63b8ff" d="M257.13,-486.44C262.6,-488.95 267.9,-491.79 272.75,-495 304.42,-515.95 332.49,-549.9 349.61,-573.28"/>
<polygon fill="#63b8ff" stroke="#63b8ff" points="346.72,-575.25 355.38,-581.35 352.42,-571.18 346.72,-575.25"/>
</a>
</g>
</g>
</g>
</svg>
