<?xml version="1.0" encoding="UTF-8" standalone="no"?>
<!DOCTYPE svg PUBLIC "-//W3C//DTD SVG 1.1//EN"
 "http://www.w3.org/Graphics/SVG/1.1/DTD/svg11.dtd">
<!-- Generated by graphviz version 13.1.0 (20250701.0955)
 -->
<!-- Title: uvis25_interrupt_init Pages: 1 -->
<svg width="293pt" height="1148pt"
 viewBox="0.00 0.00 293.00 1148.00" xmlns="http://www.w3.org/2000/svg" xmlns:xlink="http://www.w3.org/1999/xlink">
<g id="graph0" class="graph" transform="scale(1 1) rotate(0) translate(4 1144)">
<title>uvis25_interrupt_init</title>
<!-- Node1 -->
<g id="Node000001" class="node">
<title>Node1</title>
<g id="a_Node000001"><a xlink:title="interrupt example init">
<polygon fill="#999999" stroke="#666666" points="103,-574 0,-574 0,-554 103,-554 103,-574"/>
<text xml:space="preserve" text-anchor="middle" x="51.5" y="-560.5" font-family="Helvetica,sans-Serif" font-size="10.00">uvis25_interrupt_init</text>
</a>
</g>
</g>
<!-- Node2 -->
<g id="Node000002" class="node">
<title>Node2</title>
<g id="a_Node000002"><a xlink:href="group__uvis25__base__driver.html#ga278e4fac4301d6797b89dabbd462d8b5" target="_top" xlink:title="close the chip">
<polygon fill="white" stroke="#666666" points="248.38,-1140 175.38,-1140 175.38,-1120 248.38,-1120 248.38,-1140"/>
<text xml:space="preserve" text-anchor="middle" x="211.88" y="-1126.5" font-family="Helvetica,sans-Serif" font-size="10.00">uvis25_deinit</text>
</a>
</g>
</g>
<!-- Node1&#45;&gt;Node2 -->
<g id="edge1_Node000001_Node000002" class="edge">
<title>Node1&#45;&gt;Node2</title>
<g id="a_edge1_Node000001_Node000002"><a xlink:title=" ">
<path fill="none" stroke="#63b8ff" d="M52.65,-574.44C53.85,-642.94 63.92,-1027.88 139,-1111 145.59,-1118.3 154.63,-1122.93 164.06,-1125.85"/>
<polygon fill="#63b8ff" stroke="#63b8ff" points="163.2,-1129.24 173.74,-1128.18 164.84,-1122.43 163.2,-1129.24"/>
</a>
</g>
</g>
<!-- Node3 -->
<g id="Node000003" class="node">
<title>Node3</title>
<g id="a_Node000003"><a xlink:href="group__uvis25__base__driver.html#ga1e958bb96b1e1f61b637e4d7de2a8af3" target="_top" xlink:title="initialize the chip">
<polygon fill="white" stroke="#666666" points="243.12,-1102 180.62,-1102 180.62,-1082 243.12,-1082 243.12,-1102"/>
<text xml:space="preserve" text-anchor="middle" x="211.88" y="-1088.5" font-family="Helvetica,sans-Serif" font-size="10.00">uvis25_init</text>
</a>
</g>
</g>
<!-- Node1&#45;&gt;Node3 -->
<g id="edge2_Node000001_Node000003" class="edge">
<title>Node1&#45;&gt;Node3</title>
<g id="a_edge2_Node000001_Node000003"><a xlink:title=" ">
<path fill="none" stroke="#63b8ff" d="M52.78,-574.14C54.75,-639.04 68.71,-996.08 139,-1073 146.84,-1081.58 158.05,-1086.47 169.29,-1089.21"/>
<polygon fill="#63b8ff" stroke="#63b8ff" points="168.46,-1092.62 178.93,-1091.01 169.74,-1085.74 168.46,-1092.62"/>
</a>
</g>
</g>
<!-- Node4 -->
<g id="Node000004" class="node">
<title>Node4</title>
<g id="a_Node000004"><a xlink:href="group__uvis25__interface__driver.html#ga3284f81bcf56261cd27cdee755e69c1f" target="_top" xlink:title="interface print format data">
<polygon fill="white" stroke="#666666" points="271.25,-1064 152.5,-1064 152.5,-1032 271.25,-1032 271.25,-1064"/>
<text xml:space="preserve" text-anchor="start" x="160.5" y="-1050.5" font-family="Helvetica,sans-Serif" font-size="10.00">uvis25_interface_debug</text>
<text xml:space="preserve" text-anchor="middle" x="211.88" y="-1038.5" font-family="Helvetica,sans-Serif" font-size="10.00">_print</text>
</a>
</g>
</g>
<!-- Node1&#45;&gt;Node4 -->
<g id="edge3_Node000001_Node000004" class="edge">
<title>Node1&#45;&gt;Node4</title>
<g id="a_edge3_Node000001_Node000004"><a xlink:title=" ">
<path fill="none" stroke="#63b8ff" d="M53.06,-574.25C56.63,-635.41 77.87,-952.04 139,-1023 140.27,-1024.48 141.64,-1025.87 143.09,-1027.18"/>
<polygon fill="#63b8ff" stroke="#63b8ff" points="140.76,-1029.81 150.88,-1032.92 144.91,-1024.17 140.76,-1029.81"/>
</a>
</g>
</g>
<!-- Node5 -->
<g id="Node000005" class="node">
<title>Node5</title>
<g id="a_Node000005"><a xlink:href="group__uvis25__interface__driver.html#gaf51569c1b40e78cc0230a292308a4655" target="_top" xlink:title="interface delay ms">
<polygon fill="white" stroke="#666666" points="279.12,-1014 144.62,-1014 144.62,-994 279.12,-994 279.12,-1014"/>
<text xml:space="preserve" text-anchor="middle" x="211.88" y="-1000.5" font-family="Helvetica,sans-Serif" font-size="10.00">uvis25_interface_delay_ms</text>
</a>
</g>
</g>
<!-- Node1&#45;&gt;Node5 -->
<g id="edge4_Node000001_Node000005" class="edge">
<title>Node1&#45;&gt;Node5</title>
<g id="a_edge4_Node000001_Node000005"><a xlink:title=" ">
<path fill="none" stroke="#63b8ff" d="M53.17,-574.22C57.2,-632.51 80.04,-922.65 139,-985 139.6,-985.63 140.22,-986.25 140.85,-986.84"/>
<polygon fill="#63b8ff" stroke="#63b8ff" points="138.58,-989.52 148.72,-992.61 142.72,-983.87 138.58,-989.52"/>
</a>
</g>
</g>
<!-- Node6 -->
<g id="Node000006" class="node">
<title>Node6</title>
<g id="a_Node000006"><a xlink:href="group__uvis25__interface__driver.html#ga55799866475f99cfaa87ee0ae36deab7" target="_top" xlink:title="interface iic bus deinit">
<polygon fill="white" stroke="#666666" points="263,-976 160.75,-976 160.75,-944 263,-944 263,-976"/>
<text xml:space="preserve" text-anchor="start" x="168.75" y="-962.5" font-family="Helvetica,sans-Serif" font-size="10.00">uvis25_interface_iic</text>
<text xml:space="preserve" text-anchor="middle" x="211.88" y="-950.5" font-family="Helvetica,sans-Serif" font-size="10.00">_deinit</text>
</a>
</g>
</g>
<!-- Node1&#45;&gt;Node6 -->
<g id="edge5_Node000001_Node000006" class="edge">
<title>Node1&#45;&gt;Node6</title>
<g id="a_edge5_Node000001_Node000006"><a xlink:title=" ">
<path fill="none" stroke="#63b8ff" d="M53.57,-574.33C59.36,-628.46 88.58,-878.95 139,-935 142.37,-938.75 146.33,-941.93 150.64,-944.64"/>
<polygon fill="#63b8ff" stroke="#63b8ff" points="148.69,-947.57 159.17,-949.14 151.95,-941.38 148.69,-947.57"/>
</a>
</g>
</g>
<!-- Node7 -->
<g id="Node000007" class="node">
<title>Node7</title>
<g id="a_Node000007"><a xlink:href="group__uvis25__interface__driver.html#ga505ad04f9302fe486387796a9cfba1fd" target="_top" xlink:title="interface iic bus init">
<polygon fill="white" stroke="#666666" points="272,-926 151.75,-926 151.75,-906 272,-906 272,-926"/>
<text xml:space="preserve" text-anchor="middle" x="211.88" y="-912.5" font-family="Helvetica,sans-Serif" font-size="10.00">uvis25_interface_iic_init</text>
</a>
</g>
</g>
<!-- Node1&#45;&gt;Node7 -->
<g id="edge6_Node000001_Node000007" class="edge">
<title>Node1&#45;&gt;Node7</title>
<g id="a_edge6_Node000001_Node000007"><a xlink:title=" ">
<path fill="none" stroke="#63b8ff" d="M53.78,-574.34C60.29,-625.28 91.27,-849.06 139,-897 140.02,-898.03 141.1,-899 142.21,-899.93"/>
<polygon fill="#63b8ff" stroke="#63b8ff" points="139.96,-902.63 150.23,-905.23 143.82,-896.79 139.96,-902.63"/>
</a>
</g>
</g>
<!-- Node8 -->
<g id="Node000008" class="node">
<title>Node8</title>
<g id="a_Node000008"><a xlink:href="group__uvis25__interface__driver.html#ga13d9dd4153da70195ad2d5fbe0d29fdf" target="_top" xlink:title="interface iic bus read">
<polygon fill="white" stroke="#666666" points="275,-888 148.75,-888 148.75,-868 275,-868 275,-888"/>
<text xml:space="preserve" text-anchor="middle" x="211.88" y="-874.5" font-family="Helvetica,sans-Serif" font-size="10.00">uvis25_interface_iic_read</text>
</a>
</g>
</g>
<!-- Node1&#45;&gt;Node8 -->
<g id="edge7_Node000001_Node000008" class="edge">
<title>Node1&#45;&gt;Node8</title>
<g id="a_edge7_Node000001_Node000008"><a xlink:title=" ">
<path fill="none" stroke="#63b8ff" d="M52.17,-574.42C51.43,-616.65 54.49,-776.72 139,-859 139.77,-859.75 140.56,-860.47 141.38,-861.16"/>
<polygon fill="#63b8ff" stroke="#63b8ff" points="139.42,-864.06 149.67,-866.73 143.32,-858.25 139.42,-864.06"/>
</a>
</g>
</g>
<!-- Node9 -->
<g id="Node000009" class="node">
<title>Node9</title>
<g id="a_Node000009"><a xlink:href="group__uvis25__interface__driver.html#ga7492a36d83184f850d0d35f114a6ad37" target="_top" xlink:title="interface iic bus write">
<polygon fill="white" stroke="#666666" points="263,-850 160.75,-850 160.75,-818 263,-818 263,-850"/>
<text xml:space="preserve" text-anchor="start" x="168.75" y="-836.5" font-family="Helvetica,sans-Serif" font-size="10.00">uvis25_interface_iic</text>
<text xml:space="preserve" text-anchor="middle" x="211.88" y="-824.5" font-family="Helvetica,sans-Serif" font-size="10.00">_write</text>
</a>
</g>
</g>
<!-- Node1&#45;&gt;Node9 -->
<g id="edge8_Node000001_Node000009" class="edge">
<title>Node1&#45;&gt;Node9</title>
<g id="a_edge8_Node000001_Node000009"><a xlink:title=" ">
<path fill="none" stroke="#63b8ff" d="M53.06,-574.26C55.65,-611.33 69.46,-739.79 139,-809 142.37,-812.36 146.22,-815.26 150.33,-817.78"/>
<polygon fill="#63b8ff" stroke="#63b8ff" points="148.51,-820.78 159,-822.27 151.74,-814.56 148.51,-820.78"/>
</a>
</g>
</g>
<!-- Node10 -->
<g id="Node000010" class="node">
<title>Node10</title>
<g id="a_Node000010"><a xlink:href="group__uvis25__interface__driver.html#ga817e40be1da4fea806ee4526ecf081d8" target="_top" xlink:title="interface spi bus deinit">
<polygon fill="white" stroke="#666666" points="264.5,-800 159.25,-800 159.25,-768 264.5,-768 264.5,-800"/>
<text xml:space="preserve" text-anchor="start" x="167.25" y="-786.5" font-family="Helvetica,sans-Serif" font-size="10.00">uvis25_interface_spi</text>
<text xml:space="preserve" text-anchor="middle" x="211.88" y="-774.5" font-family="Helvetica,sans-Serif" font-size="10.00">_deinit</text>
</a>
</g>
</g>
<!-- Node1&#45;&gt;Node10 -->
<g id="edge9_Node000001_Node000010" class="edge">
<title>Node1&#45;&gt;Node10</title>
<g id="a_edge9_Node000001_Node000010"><a xlink:title=" ">
<path fill="none" stroke="#63b8ff" d="M54.09,-574.13C59.62,-606.06 80.96,-705.58 139,-759 142.05,-761.8 145.42,-764.3 149.01,-766.51"/>
<polygon fill="#63b8ff" stroke="#63b8ff" points="147.07,-769.45 157.54,-771.04 150.35,-763.26 147.07,-769.45"/>
</a>
</g>
</g>
<!-- Node11 -->
<g id="Node000011" class="node">
<title>Node11</title>
<g id="a_Node000011"><a xlink:href="group__uvis25__interface__driver.html#ga6cf1d89b9a56e43020751a5010eb0804" target="_top" xlink:title="interface spi bus init">
<polygon fill="white" stroke="#666666" points="273.5,-750 150.25,-750 150.25,-730 273.5,-730 273.5,-750"/>
<text xml:space="preserve" text-anchor="middle" x="211.88" y="-736.5" font-family="Helvetica,sans-Serif" font-size="10.00">uvis25_interface_spi_init</text>
</a>
</g>
</g>
<!-- Node1&#45;&gt;Node11 -->
<g id="edge10_Node000001_Node000011" class="edge">
<title>Node1&#45;&gt;Node11</title>
<g id="a_edge10_Node000001_Node000011"><a xlink:title=" ">
<path fill="none" stroke="#63b8ff" d="M55.1,-574.29C62.76,-602.42 87.98,-681.17 139,-721 140.5,-722.17 142.07,-723.28 143.7,-724.31"/>
<polygon fill="#63b8ff" stroke="#63b8ff" points="141.68,-727.2 152.15,-728.81 144.97,-721.02 141.68,-727.2"/>
</a>
</g>
</g>
<!-- Node12 -->
<g id="Node000012" class="node">
<title>Node12</title>
<g id="a_Node000012"><a xlink:href="group__uvis25__interface__driver.html#ga98adc356b0cdb969edc9180bdf83c408" target="_top" xlink:title="interface spi bus read">
<polygon fill="white" stroke="#666666" points="276.5,-712 147.25,-712 147.25,-692 276.5,-692 276.5,-712"/>
<text xml:space="preserve" text-anchor="middle" x="211.88" y="-698.5" font-family="Helvetica,sans-Serif" font-size="10.00">uvis25_interface_spi_read</text>
</a>
</g>
</g>
<!-- Node1&#45;&gt;Node12 -->
<g id="edge11_Node000001_Node000012" class="edge">
<title>Node1&#45;&gt;Node12</title>
<g id="a_edge11_Node000001_Node000012"><a xlink:title=" ">
<path fill="none" stroke="#63b8ff" d="M57.06,-574.45C67.76,-597.74 96.85,-654.14 139,-683 140.96,-684.34 143,-685.58 145.11,-686.74"/>
<polygon fill="#63b8ff" stroke="#63b8ff" points="143.47,-689.84 154.02,-690.9 146.44,-683.5 143.47,-689.84"/>
</a>
</g>
</g>
<!-- Node13 -->
<g id="Node000013" class="node">
<title>Node13</title>
<g id="a_Node000013"><a xlink:href="group__uvis25__interface__driver.html#ga7d7f7e63c40a77a784ff7e83b7659127" target="_top" xlink:title="interface spi bus write">
<polygon fill="white" stroke="#666666" points="264.5,-674 159.25,-674 159.25,-642 264.5,-642 264.5,-674"/>
<text xml:space="preserve" text-anchor="start" x="167.25" y="-660.5" font-family="Helvetica,sans-Serif" font-size="10.00">uvis25_interface_spi</text>
<text xml:space="preserve" text-anchor="middle" x="211.88" y="-648.5" font-family="Helvetica,sans-Serif" font-size="10.00">_write</text>
</a>
</g>
</g>
<!-- Node1&#45;&gt;Node13 -->
<g id="edge12_Node000001_Node000013" class="edge">
<title>Node1&#45;&gt;Node13</title>
<g id="a_edge12_Node000001_Node000013"><a xlink:title=" ">
<path fill="none" stroke="#63b8ff" d="M63.1,-574.46C78.6,-589.28 108.89,-616.39 139,-633 142.03,-634.67 145.18,-636.26 148.42,-637.77"/>
<polygon fill="#63b8ff" stroke="#63b8ff" points="146.96,-640.95 157.52,-641.7 149.73,-634.52 146.96,-640.95"/>
</a>
</g>
</g>
<!-- Node14 -->
<g id="Node000014" class="node">
<title>Node14</title>
<g id="a_Node000014"><a xlink:href="group__uvis25__base__driver.html#gaca7d218cc62eeebb8694a573b36567d3" target="_top" xlink:title="enable or disable blocking data update">
<polygon fill="white" stroke="#666666" points="269.75,-624 154,-624 154,-592 269.75,-592 269.75,-624"/>
<text xml:space="preserve" text-anchor="start" x="162" y="-610.5" font-family="Helvetica,sans-Serif" font-size="10.00">uvis25_set_block_data</text>
<text xml:space="preserve" text-anchor="middle" x="211.88" y="-598.5" font-family="Helvetica,sans-Serif" font-size="10.00">_update</text>
</a>
</g>
</g>
<!-- Node1&#45;&gt;Node14 -->
<g id="edge13_Node000001_Node000014" class="edge">
<title>Node1&#45;&gt;Node14</title>
<g id="a_edge13_Node000001_Node000014"><a xlink:title=" ">
<path fill="none" stroke="#63b8ff" d="M90.03,-574.43C105.86,-578.83 124.8,-584.09 142.93,-589.12"/>
<polygon fill="#63b8ff" stroke="#63b8ff" points="141.75,-592.43 152.32,-591.73 143.63,-585.68 141.75,-592.43"/>
</a>
</g>
</g>
<!-- Node15 -->
<g id="Node000015" class="node">
<title>Node15</title>
<g id="a_Node000015"><a xlink:href="group__uvis25__base__driver.html#ga1172b75f390e411f8072bf0423b7a306" target="_top" xlink:title="set the boot mode">
<polygon fill="white" stroke="#666666" points="255.5,-574 168.25,-574 168.25,-554 255.5,-554 255.5,-574"/>
<text xml:space="preserve" text-anchor="middle" x="211.88" y="-560.5" font-family="Helvetica,sans-Serif" font-size="10.00">uvis25_set_boot</text>
</a>
</g>
</g>
<!-- Node1&#45;&gt;Node15 -->
<g id="edge14_Node000001_Node000015" class="edge">
<title>Node1&#45;&gt;Node15</title>
<g id="a_edge14_Node000001_Node000015"><a xlink:title=" ">
<path fill="none" stroke="#63b8ff" d="M103.48,-564C120.54,-564 139.61,-564 156.9,-564"/>
<polygon fill="#63b8ff" stroke="#63b8ff" points="156.44,-567.5 166.44,-564 156.44,-560.5 156.44,-567.5"/>
</a>
</g>
</g>
<!-- Node16 -->
<g id="Node000016" class="node">
<title>Node16</title>
<g id="a_Node000016"><a xlink:href="group__uvis25__base__driver.html#ga208a53c989056d7afd5fcdadbda8458a" target="_top" xlink:title="enable or disable the chip iic">
<polygon fill="white" stroke="#666666" points="251,-536 172.75,-536 172.75,-516 251,-516 251,-536"/>
<text xml:space="preserve" text-anchor="middle" x="211.88" y="-522.5" font-family="Helvetica,sans-Serif" font-size="10.00">uvis25_set_iic</text>
</a>
</g>
</g>
<!-- Node1&#45;&gt;Node16 -->
<g id="edge15_Node000001_Node000016" class="edge">
<title>Node1&#45;&gt;Node16</title>
<g id="a_edge15_Node000001_Node000016"><a xlink:title=" ">
<path fill="none" stroke="#63b8ff" d="M96.2,-553.52C116.45,-548.66 140.62,-542.86 161.53,-537.84"/>
<polygon fill="#63b8ff" stroke="#63b8ff" points="162.07,-541.31 170.97,-535.57 160.43,-534.5 162.07,-541.31"/>
</a>
</g>
</g>
<!-- Node17 -->
<g id="Node000017" class="node">
<title>Node17</title>
<g id="a_Node000017"><a xlink:href="group__uvis25__base__driver.html#ga4f11e19a22cbb6fae294c02ee19c77be" target="_top" xlink:title="set the chip interface">
<polygon fill="white" stroke="#666666" points="264.88,-498 158.88,-498 158.88,-478 264.88,-478 264.88,-498"/>
<text xml:space="preserve" text-anchor="middle" x="211.88" y="-484.5" font-family="Helvetica,sans-Serif" font-size="10.00">uvis25_set_interface</text>
</a>
</g>
</g>
<!-- Node1&#45;&gt;Node17 -->
<g id="edge16_Node000001_Node000017" class="edge">
<title>Node1&#45;&gt;Node17</title>
<g id="a_edge16_Node000001_Node000017"><a xlink:title=" ">
<path fill="none" stroke="#63b8ff" d="M65.21,-553.7C81.42,-541.02 110.76,-519.63 139,-507 143.06,-505.18 147.33,-503.51 151.68,-501.98"/>
<polygon fill="#63b8ff" stroke="#63b8ff" points="152.7,-505.33 161.13,-498.92 150.54,-498.67 152.7,-505.33"/>
</a>
</g>
</g>
<!-- Node18 -->
<g id="Node000018" class="node">
<title>Node18</title>
<g id="a_Node000018"><a xlink:href="group__uvis25__interrupt__driver.html#gae5f7f3fd6159d846f0bbefc1afa4feb7" target="_top" xlink:title="enable or disable the chip interrupt">
<polygon fill="white" stroke="#666666" points="263.75,-460 160,-460 160,-440 263.75,-440 263.75,-460"/>
<text xml:space="preserve" text-anchor="middle" x="211.88" y="-446.5" font-family="Helvetica,sans-Serif" font-size="10.00">uvis25_set_interrupt</text>
</a>
</g>
</g>
<!-- Node1&#45;&gt;Node18 -->
<g id="edge17_Node000001_Node000018" class="edge">
<title>Node1&#45;&gt;Node18</title>
<g id="a_edge17_Node000001_Node000018"><a xlink:title=" ">
<path fill="none" stroke="#63b8ff" d="M58.95,-553.63C71.72,-533.99 102.19,-491.33 139,-469 142.14,-467.09 145.48,-465.37 148.93,-463.83"/>
<polygon fill="#63b8ff" stroke="#63b8ff" points="150.06,-467.14 158.1,-460.23 147.51,-460.62 150.06,-467.14"/>
</a>
</g>
</g>
<!-- Node19 -->
<g id="Node000019" class="node">
<title>Node19</title>
<g id="a_Node000019"><a xlink:href="group__uvis25__interrupt__driver.html#ga3a16b489278cbbc1d65ef36e8b6f5b69" target="_top" xlink:title="set the interrupt active level">
<polygon fill="white" stroke="#666666" points="263.75,-422 160,-422 160,-390 263.75,-390 263.75,-422"/>
<text xml:space="preserve" text-anchor="start" x="168" y="-408.5" font-family="Helvetica,sans-Serif" font-size="10.00">uvis25_set_interrupt</text>
<text xml:space="preserve" text-anchor="middle" x="211.88" y="-396.5" font-family="Helvetica,sans-Serif" font-size="10.00">_active_level</text>
</a>
</g>
</g>
<!-- Node1&#45;&gt;Node19 -->
<g id="edge18_Node000001_Node000019" class="edge">
<title>Node1&#45;&gt;Node19</title>
<g id="a_edge18_Node000001_Node000019"><a xlink:title=" ">
<path fill="none" stroke="#63b8ff" d="M56.43,-553.69C66.38,-528.91 94.98,-465.48 139,-431 142.26,-428.45 145.8,-426.14 149.5,-424.07"/>
<polygon fill="#63b8ff" stroke="#63b8ff" points="150.82,-427.32 158.24,-419.76 147.72,-421.04 150.82,-427.32"/>
</a>
</g>
</g>
<!-- Node20 -->
<g id="Node000020" class="node">
<title>Node20</title>
<g id="a_Node000020"><a xlink:href="group__uvis25__interrupt__driver.html#ga1a2c3b21c4a16dcd9764699a669ba512" target="_top" xlink:title="enable or disable the high threshold interrupt">
<polygon fill="white" stroke="#666666" points="263.75,-372 160,-372 160,-340 263.75,-340 263.75,-372"/>
<text xml:space="preserve" text-anchor="start" x="168" y="-358.5" font-family="Helvetica,sans-Serif" font-size="10.00">uvis25_set_interrupt</text>
<text xml:space="preserve" text-anchor="middle" x="211.88" y="-346.5" font-family="Helvetica,sans-Serif" font-size="10.00">_high_threshold</text>
</a>
</g>
</g>
<!-- Node1&#45;&gt;Node20 -->
<g id="edge19_Node000001_Node000020" class="edge">
<title>Node1&#45;&gt;Node20</title>
<g id="a_edge19_Node000001_Node000020"><a xlink:title=" ">
<path fill="none" stroke="#63b8ff" d="M54.47,-553.62C60.85,-522.74 83.85,-430.56 139,-381 142.28,-378.05 145.92,-375.45 149.78,-373.15"/>
<polygon fill="#63b8ff" stroke="#63b8ff" points="151.09,-376.42 158.39,-368.73 147.89,-370.19 151.09,-376.42"/>
</a>
</g>
</g>
<!-- Node21 -->
<g id="Node000021" class="node">
<title>Node21</title>
<g id="a_Node000021"><a xlink:href="group__uvis25__interrupt__driver.html#ga0fc91f1a85fe41fe734efaf8ca6b8d0c" target="_top" xlink:title="enable or disable the low threshold interrupt">
<polygon fill="white" stroke="#666666" points="263.75,-322 160,-322 160,-290 263.75,-290 263.75,-322"/>
<text xml:space="preserve" text-anchor="start" x="168" y="-308.5" font-family="Helvetica,sans-Serif" font-size="10.00">uvis25_set_interrupt</text>
<text xml:space="preserve" text-anchor="middle" x="211.88" y="-296.5" font-family="Helvetica,sans-Serif" font-size="10.00">_low_threshold</text>
</a>
</g>
</g>
<!-- Node1&#45;&gt;Node21 -->
<g id="edge20_Node000001_Node000021" class="edge">
<title>Node1&#45;&gt;Node21</title>
<g id="a_edge20_Node000001_Node000021"><a xlink:title=" ">
<path fill="none" stroke="#63b8ff" d="M53.25,-553.99C56.47,-518.38 72.11,-396.52 139,-331 142.2,-327.87 145.81,-325.12 149.67,-322.72"/>
<polygon fill="#63b8ff" stroke="#63b8ff" points="151.14,-325.91 158.35,-318.14 147.87,-319.72 151.14,-325.91"/>
</a>
</g>
</g>
<!-- Node22 -->
<g id="Node000022" class="node">
<title>Node22</title>
<g id="a_Node000022"><a xlink:href="group__uvis25__interrupt__driver.html#ga27ac2a7b5bd40615007ded7eb81d93b6" target="_top" xlink:title="set the interrupt pin type">
<polygon fill="white" stroke="#666666" points="263.75,-272 160,-272 160,-240 263.75,-240 263.75,-272"/>
<text xml:space="preserve" text-anchor="start" x="168" y="-258.5" font-family="Helvetica,sans-Serif" font-size="10.00">uvis25_set_interrupt</text>
<text xml:space="preserve" text-anchor="middle" x="211.88" y="-246.5" font-family="Helvetica,sans-Serif" font-size="10.00">_pin_type</text>
</a>
</g>
</g>
<!-- Node1&#45;&gt;Node22 -->
<g id="edge21_Node000001_Node000022" class="edge">
<title>Node1&#45;&gt;Node22</title>
<g id="a_edge21_Node000001_Node000022"><a xlink:title=" ">
<path fill="none" stroke="#63b8ff" d="M52.5,-553.62C53.07,-512.9 60.62,-362.43 139,-281 142.16,-277.72 145.77,-274.87 149.65,-272.4"/>
<polygon fill="#63b8ff" stroke="#63b8ff" points="151.26,-275.5 158.42,-267.69 147.96,-269.33 151.26,-275.5"/>
</a>
</g>
</g>
<!-- Node23 -->
<g id="Node000023" class="node">
<title>Node23</title>
<g id="a_Node000023"><a xlink:href="group__uvis25__interrupt__driver.html#gad742d081de02c7def381f1faa8671071" target="_top" xlink:title="set the interrupt type">
<polygon fill="white" stroke="#666666" points="275.75,-222 148,-222 148,-202 275.75,-202 275.75,-222"/>
<text xml:space="preserve" text-anchor="middle" x="211.88" y="-208.5" font-family="Helvetica,sans-Serif" font-size="10.00">uvis25_set_interrupt_type</text>
</a>
</g>
</g>
<!-- Node1&#45;&gt;Node23 -->
<g id="edge22_Node000001_Node000023" class="edge">
<title>Node1&#45;&gt;Node23</title>
<g id="a_edge22_Node000001_Node000023"><a xlink:title=" ">
<path fill="none" stroke="#63b8ff" d="M53.78,-553.66C60.29,-502.72 91.27,-278.94 139,-231 139.74,-230.26 140.5,-229.55 141.28,-228.86"/>
<polygon fill="#63b8ff" stroke="#63b8ff" points="143,-231.93 149.22,-223.36 139.01,-226.18 143,-231.93"/>
</a>
</g>
</g>
<!-- Node24 -->
<g id="Node000024" class="node">
<title>Node24</title>
<g id="a_Node000024"><a xlink:href="group__uvis25__interrupt__driver.html#ga934aa38b96955d15bd56ca3e00af494b" target="_top" xlink:title="enable or disable latching interrupt">
<polygon fill="white" stroke="#666666" points="276.88,-184 146.88,-184 146.88,-164 276.88,-164 276.88,-184"/>
<text xml:space="preserve" text-anchor="middle" x="211.88" y="-170.5" font-family="Helvetica,sans-Serif" font-size="10.00">uvis25_set_latch_interrupt</text>
</a>
</g>
</g>
<!-- Node1&#45;&gt;Node24 -->
<g id="edge23_Node000001_Node000024" class="edge">
<title>Node1&#45;&gt;Node24</title>
<g id="a_edge23_Node000001_Node000024"><a xlink:title=" ">
<path fill="none" stroke="#63b8ff" d="M53.49,-553.6C58.9,-499.11 86.48,-247.09 139,-193 139.73,-192.25 140.48,-191.53 141.26,-190.84"/>
<polygon fill="#63b8ff" stroke="#63b8ff" points="142.99,-193.9 149.14,-185.27 138.95,-188.18 142.99,-193.9"/>
</a>
</g>
</g>
<!-- Node25 -->
<g id="Node000025" class="node">
<title>Node25</title>
<g id="a_Node000025"><a xlink:href="group__uvis25__base__driver.html#ga1893019907736cb60ebbd5772a81253a" target="_top" xlink:title="set the spi wire">
<polygon fill="white" stroke="#666666" points="264.12,-146 159.62,-146 159.62,-126 264.12,-126 264.12,-146"/>
<text xml:space="preserve" text-anchor="middle" x="211.88" y="-132.5" font-family="Helvetica,sans-Serif" font-size="10.00">uvis25_set_spi_wire</text>
</a>
</g>
</g>
<!-- Node1&#45;&gt;Node25 -->
<g id="edge24_Node000001_Node000025" class="edge">
<title>Node1&#45;&gt;Node25</title>
<g id="a_edge24_Node000001_Node000025"><a xlink:title=" ">
<path fill="none" stroke="#63b8ff" d="M53.24,-553.7C57.6,-496.2 81.6,-215.34 139,-155 141.98,-151.87 145.4,-149.23 149.11,-147.02"/>
<polygon fill="#63b8ff" stroke="#63b8ff" points="150.59,-150.19 158.11,-142.72 147.57,-143.87 150.59,-150.19"/>
</a>
</g>
</g>
<!-- Node26 -->
<g id="Node000026" class="node">
<title>Node26</title>
<g id="a_Node000026"><a xlink:href="group__uvis25__interrupt__driver.html#ga292a3e875394eb37b026685cffdb45ea" target="_top" xlink:title="set the interrupt threshold">
<polygon fill="white" stroke="#666666" points="266,-108 157.75,-108 157.75,-88 266,-88 266,-108"/>
<text xml:space="preserve" text-anchor="middle" x="211.88" y="-94.5" font-family="Helvetica,sans-Serif" font-size="10.00">uvis25_set_threshold</text>
</a>
</g>
</g>
<!-- Node1&#45;&gt;Node26 -->
<g id="edge25_Node000001_Node000026" class="edge">
<title>Node1&#45;&gt;Node26</title>
<g id="a_edge25_Node000001_Node000026"><a xlink:title=" ">
<path fill="none" stroke="#63b8ff" d="M53.05,-553.56C56.48,-492.64 76.79,-183.55 139,-117 141.56,-114.27 144.46,-111.91 147.59,-109.87"/>
<polygon fill="#63b8ff" stroke="#63b8ff" points="148.96,-113.11 156.23,-105.4 145.74,-106.89 148.96,-113.11"/>
</a>
</g>
</g>
<!-- Node27 -->
<g id="Node000027" class="node">
<title>Node27</title>
<g id="a_Node000027"><a xlink:href="group__uvis25__base__driver.html#gae847b48984698e27be7cd90a2e7b0908" target="_top" xlink:title="start reading">
<polygon fill="white" stroke="#666666" points="284.75,-70 139,-70 139,-50 284.75,-50 284.75,-70"/>
<text xml:space="preserve" text-anchor="middle" x="211.88" y="-56.5" font-family="Helvetica,sans-Serif" font-size="10.00">uvis25_start_continuous_read</text>
</a>
</g>
</g>
<!-- Node1&#45;&gt;Node27 -->
<g id="edge26_Node000001_Node000027" class="edge">
<title>Node1&#45;&gt;Node27</title>
<g id="a_edge26_Node000001_Node000027"><a xlink:title=" ">
<path fill="none" stroke="#63b8ff" d="M52.88,-553.52C55.43,-489.55 71.92,-151.81 139,-79 139.59,-78.36 140.2,-77.74 140.83,-77.14"/>
<polygon fill="#63b8ff" stroke="#63b8ff" points="142.71,-80.1 148.63,-71.31 138.52,-74.49 142.71,-80.1"/>
</a>
</g>
</g>
<!-- Node28 -->
<g id="Node000028" class="node">
<title>Node28</title>
<g id="a_Node000028"><a xlink:href="group__uvis25__interrupt__driver.html#ga48b13b914b372b6609f699346e44deea" target="_top" xlink:title="convert a uv index to a raw register data">
<polygon fill="white" stroke="#666666" points="275.38,-32 148.38,-32 148.38,0 275.38,0 275.38,-32"/>
<text xml:space="preserve" text-anchor="start" x="156.38" y="-18.5" font-family="Helvetica,sans-Serif" font-size="10.00">uvis25_threshold_convert</text>
<text xml:space="preserve" text-anchor="middle" x="211.88" y="-6.5" font-family="Helvetica,sans-Serif" font-size="10.00">_to_register</text>
</a>
</g>
</g>
<!-- Node1&#45;&gt;Node28 -->
<g id="edge27_Node000001_Node000028" class="edge">
<title>Node1&#45;&gt;Node28</title>
<g id="a_edge27_Node000001_Node000028"><a xlink:title=" ">
<path fill="none" stroke="#63b8ff" d="M52.81,-553.66C55,-487.41 70.08,-122.83 139,-41 139.26,-40.7 139.51,-40.4 139.78,-40.1"/>
<polygon fill="#63b8ff" stroke="#63b8ff" points="142.06,-42.76 147.21,-33.5 137.41,-37.52 142.06,-42.76"/>
</a>
</g>
</g>
</g>
</svg>
