<?xml version="1.0" encoding="UTF-8" standalone="no"?>
<!DOCTYPE svg PUBLIC "-//W3C//DTD SVG 1.1//EN"
 "http://www.w3.org/Graphics/SVG/1.1/DTD/svg11.dtd">
<!-- Generated by graphviz version 13.1.0 (20250701.0955)
 -->
<!-- Title: uvis25_shot_init Pages: 1 -->
<svg width="420pt" height="784pt"
 viewBox="0.00 0.00 420.00 784.00" xmlns="http://www.w3.org/2000/svg" xmlns:xlink="http://www.w3.org/1999/xlink">
<g id="graph0" class="graph" transform="scale(1 1) rotate(0) translate(4 780)">
<title>uvis25_shot_init</title>
<!-- Node1 -->
<g id="Node000001" class="node">
<title>Node1</title>
<g id="a_Node000001"><a xlink:title="shot example init">
<polygon fill="#999999" stroke="#666666" points="86.5,-392 0,-392 0,-372 86.5,-372 86.5,-392"/>
<text xml:space="preserve" text-anchor="middle" x="43.25" y="-378.5" font-family="Helvetica,sans-Serif" font-size="10.00">uvis25_shot_init</text>
</a>
</g>
</g>
<!-- Node2 -->
<g id="Node000002" class="node">
<title>Node2</title>
<g id="a_Node000002"><a xlink:href="group__uvis25__base__driver.html#ga278e4fac4301d6797b89dabbd462d8b5" target="_top" xlink:title="close the chip">
<polygon fill="white" stroke="#666666" points="226.25,-776 153.25,-776 153.25,-756 226.25,-756 226.25,-776"/>
<text xml:space="preserve" text-anchor="middle" x="189.75" y="-762.5" font-family="Helvetica,sans-Serif" font-size="10.00">uvis25_deinit</text>
</a>
</g>
</g>
<!-- Node1&#45;&gt;Node2 -->
<g id="edge1_Node000001_Node000002" class="edge">
<title>Node1&#45;&gt;Node2</title>
<g id="a_edge1_Node000001_Node000002"><a xlink:title=" ">
<path fill="none" stroke="#63b8ff" d="M45.04,-392.21C49.4,-445.67 72.07,-693.01 122.5,-747 127.82,-752.7 134.73,-756.73 142.07,-759.57"/>
<polygon fill="#63b8ff" stroke="#63b8ff" points="140.96,-762.89 151.55,-762.49 143.02,-756.2 140.96,-762.89"/>
</a>
</g>
</g>
<!-- Node3 -->
<g id="Node000003" class="node">
<title>Node3</title>
<g id="a_Node000003"><a xlink:href="group__uvis25__base__driver.html#ga1e958bb96b1e1f61b637e4d7de2a8af3" target="_top" xlink:title="initialize the chip">
<polygon fill="white" stroke="#666666" points="221,-738 158.5,-738 158.5,-718 221,-718 221,-738"/>
<text xml:space="preserve" text-anchor="middle" x="189.75" y="-724.5" font-family="Helvetica,sans-Serif" font-size="10.00">uvis25_init</text>
</a>
</g>
</g>
<!-- Node1&#45;&gt;Node3 -->
<g id="edge2_Node000001_Node000003" class="edge">
<title>Node1&#45;&gt;Node3</title>
<g id="a_edge2_Node000001_Node000003"><a xlink:title=" ">
<path fill="none" stroke="#63b8ff" d="M45.43,-392.24C51.35,-441.7 79.11,-655.59 122.5,-704 129.07,-711.33 138.06,-716.43 147.3,-719.97"/>
<polygon fill="#63b8ff" stroke="#63b8ff" points="146.09,-723.25 156.69,-722.98 148.24,-716.59 146.09,-723.25"/>
</a>
</g>
</g>
<!-- Node4 -->
<g id="Node000004" class="node">
<title>Node4</title>
<g id="a_Node000004"><a xlink:href="group__uvis25__interface__driver.html#ga3284f81bcf56261cd27cdee755e69c1f" target="_top" xlink:title="interface print format data">
<polygon fill="white" stroke="#666666" points="411.75,-577 293,-577 293,-545 411.75,-545 411.75,-577"/>
<text xml:space="preserve" text-anchor="start" x="301" y="-563.5" font-family="Helvetica,sans-Serif" font-size="10.00">uvis25_interface_debug</text>
<text xml:space="preserve" text-anchor="middle" x="352.38" y="-551.5" font-family="Helvetica,sans-Serif" font-size="10.00">_print</text>
</a>
</g>
</g>
<!-- Node1&#45;&gt;Node4 -->
<g id="edge3_Node000001_Node000004" class="edge">
<title>Node1&#45;&gt;Node4</title>
<g id="a_edge3_Node000001_Node000004"><a xlink:title=" ">
<path fill="none" stroke="#63b8ff" d="M45.41,-392.44C50.92,-440.02 76.16,-635.54 122.5,-671 169.97,-707.33 202.69,-695.97 257,-671 294.34,-653.84 322.45,-613.8 337.91,-587.06"/>
<polygon fill="#63b8ff" stroke="#63b8ff" points="340.85,-588.97 342.65,-578.53 334.73,-585.57 340.85,-588.97"/>
</a>
</g>
</g>
<!-- Node5 -->
<g id="Node000005" class="node">
<title>Node5</title>
<g id="a_Node000005"><a xlink:href="group__uvis25__interface__driver.html#gaf51569c1b40e78cc0230a292308a4655" target="_top" xlink:title="interface delay ms">
<polygon fill="white" stroke="#666666" points="257,-662 122.5,-662 122.5,-642 257,-642 257,-662"/>
<text xml:space="preserve" text-anchor="middle" x="189.75" y="-648.5" font-family="Helvetica,sans-Serif" font-size="10.00">uvis25_interface_delay_ms</text>
</a>
</g>
</g>
<!-- Node1&#45;&gt;Node5 -->
<g id="edge4_Node000001_Node000005" class="edge">
<title>Node1&#45;&gt;Node5</title>
<g id="a_edge4_Node000001_Node000005"><a xlink:title=" ">
<path fill="none" stroke="#63b8ff" d="M44.21,-392.35C44.63,-430.34 51.34,-563.45 122.5,-633 123.38,-633.86 124.29,-634.68 125.23,-635.46"/>
<polygon fill="#63b8ff" stroke="#63b8ff" points="122.94,-638.14 133.21,-640.73 126.8,-632.3 122.94,-638.14"/>
</a>
</g>
</g>
<!-- Node6 -->
<g id="Node000006" class="node">
<title>Node6</title>
<g id="a_Node000006"><a xlink:href="group__uvis25__interface__driver.html#ga55799866475f99cfaa87ee0ae36deab7" target="_top" xlink:title="interface iic bus deinit">
<polygon fill="white" stroke="#666666" points="240.88,-624 138.62,-624 138.62,-592 240.88,-592 240.88,-624"/>
<text xml:space="preserve" text-anchor="start" x="146.62" y="-610.5" font-family="Helvetica,sans-Serif" font-size="10.00">uvis25_interface_iic</text>
<text xml:space="preserve" text-anchor="middle" x="189.75" y="-598.5" font-family="Helvetica,sans-Serif" font-size="10.00">_deinit</text>
</a>
</g>
</g>
<!-- Node1&#45;&gt;Node6 -->
<g id="edge5_Node000001_Node000006" class="edge">
<title>Node1&#45;&gt;Node6</title>
<g id="a_edge5_Node000001_Node000006"><a xlink:title=" ">
<path fill="none" stroke="#63b8ff" d="M45.33,-392.36C49.28,-425 65.81,-526.89 122.5,-583 124.49,-584.97 126.65,-586.78 128.93,-588.46"/>
<polygon fill="#63b8ff" stroke="#63b8ff" points="126.62,-591.14 136.96,-593.44 130.31,-585.2 126.62,-591.14"/>
</a>
</g>
</g>
<!-- Node7 -->
<g id="Node000007" class="node">
<title>Node7</title>
<g id="a_Node000007"><a xlink:href="group__uvis25__interface__driver.html#ga505ad04f9302fe486387796a9cfba1fd" target="_top" xlink:title="interface iic bus init">
<polygon fill="white" stroke="#666666" points="249.88,-574 129.62,-574 129.62,-554 249.88,-554 249.88,-574"/>
<text xml:space="preserve" text-anchor="middle" x="189.75" y="-560.5" font-family="Helvetica,sans-Serif" font-size="10.00">uvis25_interface_iic_init</text>
</a>
</g>
</g>
<!-- Node1&#45;&gt;Node7 -->
<g id="edge6_Node000001_Node000007" class="edge">
<title>Node1&#45;&gt;Node7</title>
<g id="a_edge6_Node000001_Node000007"><a xlink:title=" ">
<path fill="none" stroke="#63b8ff" d="M46.13,-392.18C51.94,-420.82 72.37,-502.67 122.5,-545 123.79,-546.09 125.13,-547.11 126.52,-548.07"/>
<polygon fill="#63b8ff" stroke="#63b8ff" points="124.57,-550.99 134.99,-552.89 128.03,-544.9 124.57,-550.99"/>
</a>
</g>
</g>
<!-- Node8 -->
<g id="Node000008" class="node">
<title>Node8</title>
<g id="a_Node000008"><a xlink:href="group__uvis25__interface__driver.html#ga13d9dd4153da70195ad2d5fbe0d29fdf" target="_top" xlink:title="interface iic bus read">
<polygon fill="white" stroke="#666666" points="252.88,-536 126.62,-536 126.62,-516 252.88,-516 252.88,-536"/>
<text xml:space="preserve" text-anchor="middle" x="189.75" y="-522.5" font-family="Helvetica,sans-Serif" font-size="10.00">uvis25_interface_iic_read</text>
</a>
</g>
</g>
<!-- Node1&#45;&gt;Node8 -->
<g id="edge7_Node000001_Node000008" class="edge">
<title>Node1&#45;&gt;Node8</title>
<g id="a_edge7_Node000001_Node000008"><a xlink:title=" ">
<path fill="none" stroke="#63b8ff" d="M47.71,-392.19C56.35,-416.05 81.18,-475.89 122.5,-507 124.22,-508.3 126.03,-509.5 127.9,-510.63"/>
<polygon fill="#63b8ff" stroke="#63b8ff" points="125.85,-513.51 136.35,-514.91 129.01,-507.27 125.85,-513.51"/>
</a>
</g>
</g>
<!-- Node9 -->
<g id="Node000009" class="node">
<title>Node9</title>
<g id="a_Node000009"><a xlink:href="group__uvis25__interface__driver.html#ga7492a36d83184f850d0d35f114a6ad37" target="_top" xlink:title="interface iic bus write">
<polygon fill="white" stroke="#666666" points="240.88,-498 138.62,-498 138.62,-466 240.88,-466 240.88,-498"/>
<text xml:space="preserve" text-anchor="start" x="146.62" y="-484.5" font-family="Helvetica,sans-Serif" font-size="10.00">uvis25_interface_iic</text>
<text xml:space="preserve" text-anchor="middle" x="189.75" y="-472.5" font-family="Helvetica,sans-Serif" font-size="10.00">_write</text>
</a>
</g>
</g>
<!-- Node1&#45;&gt;Node9 -->
<g id="edge8_Node000001_Node000009" class="edge">
<title>Node1&#45;&gt;Node9</title>
<g id="a_edge8_Node000001_Node000009"><a xlink:title=" ">
<path fill="none" stroke="#63b8ff" d="M52.6,-392.34C65.9,-408.2 93.37,-438.63 122.5,-457 124.37,-458.18 126.31,-459.32 128.29,-460.41"/>
<polygon fill="#63b8ff" stroke="#63b8ff" points="126.64,-463.5 137.15,-464.86 129.78,-457.25 126.64,-463.5"/>
</a>
</g>
</g>
<!-- Node10 -->
<g id="Node000010" class="node">
<title>Node10</title>
<g id="a_Node000010"><a xlink:href="group__uvis25__interface__driver.html#ga42ef9eec163d3e0e473ff11bc903c553" target="_top" xlink:title="interface receive callback">
<polygon fill="white" stroke="#666666" points="251.75,-448 127.75,-448 127.75,-416 251.75,-416 251.75,-448"/>
<text xml:space="preserve" text-anchor="start" x="135.75" y="-434.5" font-family="Helvetica,sans-Serif" font-size="10.00">uvis25_interface_receive</text>
<text xml:space="preserve" text-anchor="middle" x="189.75" y="-422.5" font-family="Helvetica,sans-Serif" font-size="10.00">_callback</text>
</a>
</g>
</g>
<!-- Node1&#45;&gt;Node10 -->
<g id="edge9_Node000001_Node000010" class="edge">
<title>Node1&#45;&gt;Node10</title>
<g id="a_edge9_Node000001_Node000010"><a xlink:title=" ">
<path fill="none" stroke="#63b8ff" d="M74.54,-392.48C90.74,-398.09 111.23,-405.18 130.38,-411.8"/>
<polygon fill="#63b8ff" stroke="#63b8ff" points="129.12,-415.07 139.72,-415.03 131.41,-408.46 129.12,-415.07"/>
</a>
</g>
</g>
<!-- Node11 -->
<g id="Node000011" class="node">
<title>Node11</title>
<g id="a_Node000011"><a xlink:href="group__uvis25__interface__driver.html#ga817e40be1da4fea806ee4526ecf081d8" target="_top" xlink:title="interface spi bus deinit">
<polygon fill="white" stroke="#666666" points="242.38,-398 137.12,-398 137.12,-366 242.38,-366 242.38,-398"/>
<text xml:space="preserve" text-anchor="start" x="145.12" y="-384.5" font-family="Helvetica,sans-Serif" font-size="10.00">uvis25_interface_spi</text>
<text xml:space="preserve" text-anchor="middle" x="189.75" y="-372.5" font-family="Helvetica,sans-Serif" font-size="10.00">_deinit</text>
</a>
</g>
</g>
<!-- Node1&#45;&gt;Node11 -->
<g id="edge11_Node000001_Node000011" class="edge">
<title>Node1&#45;&gt;Node11</title>
<g id="a_edge11_Node000001_Node000011"><a xlink:title=" ">
<path fill="none" stroke="#63b8ff" d="M86.82,-382C98.93,-382 112.38,-382 125.43,-382"/>
<polygon fill="#63b8ff" stroke="#63b8ff" points="125.25,-385.5 135.25,-382 125.25,-378.5 125.25,-385.5"/>
</a>
</g>
</g>
<!-- Node12 -->
<g id="Node000012" class="node">
<title>Node12</title>
<g id="a_Node000012"><a xlink:href="group__uvis25__interface__driver.html#ga6cf1d89b9a56e43020751a5010eb0804" target="_top" xlink:title="interface spi bus init">
<polygon fill="white" stroke="#666666" points="251.38,-348 128.12,-348 128.12,-328 251.38,-328 251.38,-348"/>
<text xml:space="preserve" text-anchor="middle" x="189.75" y="-334.5" font-family="Helvetica,sans-Serif" font-size="10.00">uvis25_interface_spi_init</text>
</a>
</g>
</g>
<!-- Node1&#45;&gt;Node12 -->
<g id="edge12_Node000001_Node000012" class="edge">
<title>Node1&#45;&gt;Node12</title>
<g id="a_edge12_Node000001_Node000012"><a xlink:title=" ">
<path fill="none" stroke="#63b8ff" d="M76.16,-371.57C90.33,-367 107.21,-361.63 122.5,-357 128.37,-355.22 134.54,-353.39 140.66,-351.61"/>
<polygon fill="#63b8ff" stroke="#63b8ff" points="141.46,-355.02 150.1,-348.88 139.52,-348.3 141.46,-355.02"/>
</a>
</g>
</g>
<!-- Node13 -->
<g id="Node000013" class="node">
<title>Node13</title>
<g id="a_Node000013"><a xlink:href="group__uvis25__interface__driver.html#ga98adc356b0cdb969edc9180bdf83c408" target="_top" xlink:title="interface spi bus read">
<polygon fill="white" stroke="#666666" points="254.38,-310 125.12,-310 125.12,-290 254.38,-290 254.38,-310"/>
<text xml:space="preserve" text-anchor="middle" x="189.75" y="-296.5" font-family="Helvetica,sans-Serif" font-size="10.00">uvis25_interface_spi_read</text>
</a>
</g>
</g>
<!-- Node1&#45;&gt;Node13 -->
<g id="edge13_Node000001_Node000013" class="edge">
<title>Node1&#45;&gt;Node13</title>
<g id="a_edge13_Node000001_Node000013"><a xlink:title=" ">
<path fill="none" stroke="#63b8ff" d="M54.42,-371.53C68.49,-357.61 95.25,-333.14 122.5,-319 125.74,-317.32 129.15,-315.77 132.64,-314.34"/>
<polygon fill="#63b8ff" stroke="#63b8ff" points="133.68,-317.69 141.85,-310.95 131.26,-311.12 133.68,-317.69"/>
</a>
</g>
</g>
<!-- Node14 -->
<g id="Node000014" class="node">
<title>Node14</title>
<g id="a_Node000014"><a xlink:href="group__uvis25__interface__driver.html#ga7d7f7e63c40a77a784ff7e83b7659127" target="_top" xlink:title="interface spi bus write">
<polygon fill="white" stroke="#666666" points="242.38,-272 137.12,-272 137.12,-240 242.38,-240 242.38,-272"/>
<text xml:space="preserve" text-anchor="start" x="145.12" y="-258.5" font-family="Helvetica,sans-Serif" font-size="10.00">uvis25_interface_spi</text>
<text xml:space="preserve" text-anchor="middle" x="189.75" y="-246.5" font-family="Helvetica,sans-Serif" font-size="10.00">_write</text>
</a>
</g>
</g>
<!-- Node1&#45;&gt;Node14 -->
<g id="edge14_Node000001_Node000014" class="edge">
<title>Node1&#45;&gt;Node14</title>
<g id="a_edge14_Node000001_Node000014"><a xlink:title=" ">
<path fill="none" stroke="#63b8ff" d="M49.71,-371.6C60.8,-351.39 87.89,-306.57 122.5,-281 123.86,-280 125.26,-279.03 126.71,-278.09"/>
<polygon fill="#63b8ff" stroke="#63b8ff" points="128.38,-281.17 135.33,-273.18 124.91,-275.09 128.38,-281.17"/>
</a>
</g>
</g>
<!-- Node15 -->
<g id="Node000015" class="node">
<title>Node15</title>
<g id="a_Node000015"><a xlink:href="group__uvis25__base__driver.html#gaca7d218cc62eeebb8694a573b36567d3" target="_top" xlink:title="enable or disable blocking data update">
<polygon fill="white" stroke="#666666" points="247.62,-222 131.88,-222 131.88,-190 247.62,-190 247.62,-222"/>
<text xml:space="preserve" text-anchor="start" x="139.88" y="-208.5" font-family="Helvetica,sans-Serif" font-size="10.00">uvis25_set_block_data</text>
<text xml:space="preserve" text-anchor="middle" x="189.75" y="-196.5" font-family="Helvetica,sans-Serif" font-size="10.00">_update</text>
</a>
</g>
</g>
<!-- Node1&#45;&gt;Node15 -->
<g id="edge15_Node000001_Node000015" class="edge">
<title>Node1&#45;&gt;Node15</title>
<g id="a_edge15_Node000001_Node000015"><a xlink:title=" ">
<path fill="none" stroke="#63b8ff" d="M46.84,-371.59C54.08,-344.56 77.04,-271.41 122.5,-231 123.42,-230.18 124.37,-229.39 125.34,-228.63"/>
<polygon fill="#63b8ff" stroke="#63b8ff" points="127.06,-231.68 133.44,-223.22 123.18,-225.86 127.06,-231.68"/>
</a>
</g>
</g>
<!-- Node16 -->
<g id="Node000016" class="node">
<title>Node16</title>
<g id="a_Node000016"><a xlink:href="group__uvis25__base__driver.html#ga1172b75f390e411f8072bf0423b7a306" target="_top" xlink:title="set the boot mode">
<polygon fill="white" stroke="#666666" points="233.38,-172 146.12,-172 146.12,-152 233.38,-152 233.38,-172"/>
<text xml:space="preserve" text-anchor="middle" x="189.75" y="-158.5" font-family="Helvetica,sans-Serif" font-size="10.00">uvis25_set_boot</text>
</a>
</g>
</g>
<!-- Node1&#45;&gt;Node16 -->
<g id="edge16_Node000001_Node000016" class="edge">
<title>Node1&#45;&gt;Node16</title>
<g id="a_edge16_Node000001_Node000016"><a xlink:title=" ">
<path fill="none" stroke="#63b8ff" d="M45.1,-371.91C48.39,-339.18 63.29,-235 122.5,-181 126.28,-177.55 130.65,-174.72 135.3,-172.41"/>
<polygon fill="#63b8ff" stroke="#63b8ff" points="136.49,-175.7 144.43,-168.68 133.84,-169.22 136.49,-175.7"/>
</a>
</g>
</g>
<!-- Node17 -->
<g id="Node000017" class="node">
<title>Node17</title>
<g id="a_Node000017"><a xlink:href="group__uvis25__base__driver.html#ga208a53c989056d7afd5fcdadbda8458a" target="_top" xlink:title="enable or disable the chip iic">
<polygon fill="white" stroke="#666666" points="228.88,-134 150.62,-134 150.62,-114 228.88,-114 228.88,-134"/>
<text xml:space="preserve" text-anchor="middle" x="189.75" y="-120.5" font-family="Helvetica,sans-Serif" font-size="10.00">uvis25_set_iic</text>
</a>
</g>
</g>
<!-- Node1&#45;&gt;Node17 -->
<g id="edge17_Node000001_Node000017" class="edge">
<title>Node1&#45;&gt;Node17</title>
<g id="a_edge17_Node000001_Node000017"><a xlink:title=" ">
<path fill="none" stroke="#63b8ff" d="M44.39,-371.63C45.49,-334.76 54.28,-208.74 122.5,-143 127.36,-138.32 133.29,-134.78 139.58,-132.1"/>
<polygon fill="#63b8ff" stroke="#63b8ff" points="140.66,-135.44 148.97,-128.86 138.37,-128.82 140.66,-135.44"/>
</a>
</g>
</g>
<!-- Node18 -->
<g id="Node000018" class="node">
<title>Node18</title>
<g id="a_Node000018"><a xlink:href="group__uvis25__base__driver.html#ga4f11e19a22cbb6fae294c02ee19c77be" target="_top" xlink:title="set the chip interface">
<polygon fill="white" stroke="#666666" points="242.75,-96 136.75,-96 136.75,-76 242.75,-76 242.75,-96"/>
<text xml:space="preserve" text-anchor="middle" x="189.75" y="-82.5" font-family="Helvetica,sans-Serif" font-size="10.00">uvis25_set_interface</text>
</a>
</g>
</g>
<!-- Node1&#45;&gt;Node18 -->
<g id="edge18_Node000001_Node000018" class="edge">
<title>Node1&#45;&gt;Node18</title>
<g id="a_edge18_Node000001_Node000018"><a xlink:title=" ">
<path fill="none" stroke="#63b8ff" d="M43.85,-371.73C42.89,-331.48 44.92,-182.89 122.5,-105 123.86,-103.63 125.32,-102.36 126.85,-101.18"/>
<polygon fill="#63b8ff" stroke="#63b8ff" points="128.35,-104.36 135.03,-96.14 124.68,-98.4 128.35,-104.36"/>
</a>
</g>
</g>
<!-- Node19 -->
<g id="Node000019" class="node">
<title>Node19</title>
<g id="a_Node000019"><a xlink:href="group__uvis25__interrupt__driver.html#gae5f7f3fd6159d846f0bbefc1afa4feb7" target="_top" xlink:title="enable or disable the chip interrupt">
<polygon fill="white" stroke="#666666" points="241.62,-58 137.88,-58 137.88,-38 241.62,-38 241.62,-58"/>
<text xml:space="preserve" text-anchor="middle" x="189.75" y="-44.5" font-family="Helvetica,sans-Serif" font-size="10.00">uvis25_set_interrupt</text>
</a>
</g>
</g>
<!-- Node1&#45;&gt;Node19 -->
<g id="edge19_Node000001_Node000019" class="edge">
<title>Node1&#45;&gt;Node19</title>
<g id="a_edge19_Node000001_Node000019"><a xlink:title=" ">
<path fill="none" stroke="#63b8ff" d="M45.44,-371.6C51.27,-322.31 78.39,-112.72 122.5,-67 124.09,-65.35 125.81,-63.85 127.64,-62.47"/>
<polygon fill="#63b8ff" stroke="#63b8ff" points="129.4,-65.49 136.19,-57.37 125.81,-59.48 129.4,-65.49"/>
</a>
</g>
</g>
<!-- Node20 -->
<g id="Node000020" class="node">
<title>Node20</title>
<g id="a_Node000020"><a xlink:href="group__uvis25__base__driver.html#ga1893019907736cb60ebbd5772a81253a" target="_top" xlink:title="set the spi wire">
<polygon fill="white" stroke="#666666" points="242,-20 137.5,-20 137.5,0 242,0 242,-20"/>
<text xml:space="preserve" text-anchor="middle" x="189.75" y="-6.5" font-family="Helvetica,sans-Serif" font-size="10.00">uvis25_set_spi_wire</text>
</a>
</g>
</g>
<!-- Node1&#45;&gt;Node20 -->
<g id="edge20_Node000001_Node000020" class="edge">
<title>Node1&#45;&gt;Node20</title>
<g id="a_edge20_Node000001_Node000020"><a xlink:title=" ">
<path fill="none" stroke="#63b8ff" d="M45.12,-371.78C49.81,-319.36 73.58,-81.01 122.5,-29 124.04,-27.37 125.7,-25.87 127.47,-24.5"/>
<polygon fill="#63b8ff" stroke="#63b8ff" points="129.06,-27.63 135.77,-19.43 125.41,-21.66 129.06,-27.63"/>
</a>
</g>
</g>
<!-- Node10&#45;&gt;Node4 -->
<g id="edge10_Node000010_Node000004" class="edge">
<title>Node10&#45;&gt;Node4</title>
<g id="a_edge10_Node000010_Node000004"><a xlink:title=" ">
<path fill="none" stroke="#63b8ff" d="M241.91,-448.45C247.19,-450.97 252.32,-453.82 257,-457 288.4,-478.36 316.52,-512.22 333.74,-535.47"/>
<polygon fill="#63b8ff" stroke="#63b8ff" points="330.84,-537.44 339.54,-543.49 336.51,-533.34 330.84,-537.44"/>
</a>
</g>
</g>
</g>
</svg>
