<?xml version="1.0" encoding="UTF-8" standalone="no"?>
<!DOCTYPE svg PUBLIC "-//W3C//DTD SVG 1.1//EN"
 "http://www.w3.org/Graphics/SVG/1.1/DTD/svg11.dtd">
<!-- Generated by graphviz version 13.1.0 (20250701.0955)
 -->
<!-- Title: uvis25_basic_deinit Pages: 1 -->
<svg width="291pt" height="66pt"
 viewBox="0.00 0.00 291.00 66.00" xmlns="http://www.w3.org/2000/svg" xmlns:xlink="http://www.w3.org/1999/xlink">
<g id="graph0" class="graph" transform="scale(1 1) rotate(0) translate(4 62)">
<title>uvis25_basic_deinit</title>
<!-- Node1 -->
<g id="Node000001" class="node">
<title>Node1</title>
<g id="a_Node000001"><a xlink:title="basic example deinit">
<polygon fill="#999999" stroke="#666666" points="101.5,-39 0,-39 0,-19 101.5,-19 101.5,-39"/>
<text xml:space="preserve" text-anchor="middle" x="50.75" y="-25.5" font-family="Helvetica,sans-Serif" font-size="10.00">uvis25_basic_deinit</text>
</a>
</g>
</g>
<!-- Node2 -->
<g id="Node000002" class="node">
<title>Node2</title>
<g id="a_Node000002"><a xlink:href="group__uvis25__base__driver.html#ga278e4fac4301d6797b89dabbd462d8b5" target="_top" xlink:title="close the chip">
<polygon fill="white" stroke="#666666" points="246.5,-58 173.5,-58 173.5,-38 246.5,-38 246.5,-58"/>
<text xml:space="preserve" text-anchor="middle" x="210" y="-44.5" font-family="Helvetica,sans-Serif" font-size="10.00">uvis25_deinit</text>
</a>
</g>
</g>
<!-- Node1&#45;&gt;Node2 -->
<g id="edge1_Node000001_Node000002" class="edge">
<title>Node1&#45;&gt;Node2</title>
<g id="a_edge1_Node000001_Node000002"><a xlink:title=" ">
<path fill="none" stroke="#63b8ff" d="M101.94,-35.06C121.14,-37.38 142.96,-40.02 161.87,-42.31"/>
<polygon fill="#63b8ff" stroke="#63b8ff" points="161.37,-45.77 171.72,-43.49 162.21,-38.82 161.37,-45.77"/>
</a>
</g>
</g>
<!-- Node3 -->
<g id="Node000003" class="node">
<title>Node3</title>
<g id="a_Node000003"><a xlink:href="group__uvis25__base__driver.html#gaee6142aaef7f569f48d3f2aaabb5cf3c" target="_top" xlink:title="stop reading">
<polygon fill="white" stroke="#666666" points="282.5,-20 137.5,-20 137.5,0 282.5,0 282.5,-20"/>
<text xml:space="preserve" text-anchor="middle" x="210" y="-6.5" font-family="Helvetica,sans-Serif" font-size="10.00">uvis25_stop_continuous_read</text>
</a>
</g>
</g>
<!-- Node1&#45;&gt;Node3 -->
<g id="edge2_Node000001_Node000003" class="edge">
<title>Node1&#45;&gt;Node3</title>
<g id="a_edge2_Node000001_Node000003"><a xlink:title=" ">
<path fill="none" stroke="#63b8ff" d="M101.94,-22.94C109.66,-22 117.81,-21.02 126.02,-20.03"/>
<polygon fill="#63b8ff" stroke="#63b8ff" points="126.21,-23.53 135.72,-18.85 125.37,-16.58 126.21,-23.53"/>
</a>
</g>
</g>
</g>
</svg>
