<?xml version="1.0" encoding="UTF-8" standalone="no"?>
<!DOCTYPE svg PUBLIC "-//W3C//DTD SVG 1.1//EN"
 "http://www.w3.org/Graphics/SVG/1.1/DTD/svg11.dtd">
<!-- Generated by graphviz version 13.1.0 (20250701.0955)
 -->
<!-- Title: uvis25 driver function Pages: 1 -->
<svg width="265pt" height="340pt"
 viewBox="0.00 0.00 265.00 340.00" xmlns="http://www.w3.org/2000/svg" xmlns:xlink="http://www.w3.org/1999/xlink">
<g id="graph0" class="graph" transform="scale(1 1) rotate(0) translate(4 336)">
<title>uvis25 driver function</title>
<!-- Node3 -->
<g id="Node000003" class="node">
<title>Node3</title>
<g id="a_Node000003"><a xlink:href="group__uvis25__base__driver.html" target="_top" xlink:title="uvis25 base driver modules">
<polygon fill="white" stroke="#666666" points="248.75,-332 153.25,-332 153.25,-300 248.75,-300 248.75,-332"/>
<text xml:space="preserve" text-anchor="start" x="161.25" y="-318.5" font-family="Helvetica,sans-Serif" font-size="10.00">uvis25 base driver</text>
<text xml:space="preserve" text-anchor="middle" x="201" y="-306.5" font-family="Helvetica,sans-Serif" font-size="10.00"> function</text>
</a>
</g>
</g>
<!-- Node1 -->
<g id="Node000001" class="node">
<title>Node1</title>
<g id="a_Node000001"><a xlink:title="uvis25 driver modules">
<polygon fill="#999999" stroke="#666666" points="109,-176 0,-176 0,-156 109,-156 109,-176"/>
<text xml:space="preserve" text-anchor="middle" x="54.5" y="-162.5" font-family="Helvetica,sans-Serif" font-size="10.00">uvis25 driver function</text>
</a>
</g>
</g>
<!-- Node1&#45;&gt;Node3 -->
<g id="edge2" class="edge">
<title>Node1&#45;&gt;Node3</title>
<path fill="none" stroke="black" d="M65.68,-186.35C80.09,-213.39 108.76,-261.21 145,-291 148.89,-294.2 153.25,-297.07 157.78,-299.64"/>
<polygon fill="black" stroke="black" points="68.96,-185.07 61.25,-177.81 62.74,-188.29 68.96,-185.07"/>
</g>
<!-- Node7 -->
<g id="Node000007" class="node">
<title>Node7</title>
<g id="a_Node000007"><a xlink:href="group__uvis25__example__driver.html" target="_top" xlink:title="uvis25 example driver modules">
<polygon fill="white" stroke="#666666" points="256.62,-282 145.38,-282 145.38,-250 256.62,-250 256.62,-282"/>
<text xml:space="preserve" text-anchor="start" x="153.38" y="-268.5" font-family="Helvetica,sans-Serif" font-size="10.00">uvis25 example driver</text>
<text xml:space="preserve" text-anchor="middle" x="201" y="-256.5" font-family="Helvetica,sans-Serif" font-size="10.00"> function</text>
</a>
</g>
</g>
<!-- Node1&#45;&gt;Node7 -->
<g id="edge6" class="edge">
<title>Node1&#45;&gt;Node7</title>
<path fill="none" stroke="black" d="M73.89,-184C91.22,-200.3 118.41,-224.26 145,-241 149.79,-244.02 155.01,-246.88 160.26,-249.51"/>
<polygon fill="black" stroke="black" points="76.53,-181.67 66.88,-177.29 71.69,-186.73 76.53,-181.67"/>
</g>
<!-- Node5 -->
<g id="Node000005" class="node">
<title>Node5</title>
<g id="a_Node000005"><a xlink:href="group__uvis25__extend__driver.html" target="_top" xlink:title="uvis25 extend driver modules">
<polygon fill="white" stroke="#666666" points="252.88,-232 149.12,-232 149.12,-200 252.88,-200 252.88,-232"/>
<text xml:space="preserve" text-anchor="start" x="157.12" y="-218.5" font-family="Helvetica,sans-Serif" font-size="10.00">uvis25 extend driver</text>
<text xml:space="preserve" text-anchor="middle" x="201" y="-206.5" font-family="Helvetica,sans-Serif" font-size="10.00"> function</text>
</a>
</g>
</g>
<!-- Node1&#45;&gt;Node5 -->
<g id="edge4" class="edge">
<title>Node1&#45;&gt;Node5</title>
<path fill="none" stroke="black" d="M96.23,-180.09C113.7,-186.14 134.23,-193.24 152.4,-199.53"/>
<polygon fill="black" stroke="black" points="97.82,-176.94 87.22,-176.98 95.53,-183.55 97.82,-176.94"/>
</g>
<!-- Node6 -->
<g id="Node000006" class="node">
<title>Node6</title>
<g id="a_Node000006"><a xlink:href="group__uvis25__interface__driver.html" target="_top" xlink:title="uvis25 interface driver modules">
<polygon fill="white" stroke="#666666" points="257,-182 145,-182 145,-150 257,-150 257,-182"/>
<text xml:space="preserve" text-anchor="start" x="153" y="-168.5" font-family="Helvetica,sans-Serif" font-size="10.00">uvis25 interface driver</text>
<text xml:space="preserve" text-anchor="middle" x="201" y="-156.5" font-family="Helvetica,sans-Serif" font-size="10.00"> function</text>
</a>
</g>
</g>
<!-- Node1&#45;&gt;Node6 -->
<g id="edge5" class="edge">
<title>Node1&#45;&gt;Node6</title>
<path fill="none" stroke="black" d="M120.57,-166C128.63,-166 136.81,-166 144.7,-166"/>
<polygon fill="black" stroke="black" points="120.82,-162.5 110.82,-166 120.82,-169.5 120.82,-162.5"/>
</g>
<!-- Node4 -->
<g id="Node000004" class="node">
<title>Node4</title>
<g id="a_Node000004"><a xlink:href="group__uvis25__interrupt__driver.html" target="_top" xlink:title="uvis25 interrupt driver modules">
<polygon fill="white" stroke="#666666" points="255.88,-132 146.12,-132 146.12,-100 255.88,-100 255.88,-132"/>
<text xml:space="preserve" text-anchor="start" x="154.12" y="-118.5" font-family="Helvetica,sans-Serif" font-size="10.00">uvis25 interrupt driver</text>
<text xml:space="preserve" text-anchor="middle" x="201" y="-106.5" font-family="Helvetica,sans-Serif" font-size="10.00"> function</text>
</a>
</g>
</g>
<!-- Node1&#45;&gt;Node4 -->
<g id="edge3" class="edge">
<title>Node1&#45;&gt;Node4</title>
<path fill="none" stroke="black" d="M96.23,-151.91C113.7,-145.86 134.23,-138.76 152.4,-132.47"/>
<polygon fill="black" stroke="black" points="95.53,-148.45 87.22,-155.02 97.82,-155.06 95.53,-148.45"/>
</g>
<!-- Node2 -->
<g id="Node000002" class="node">
<title>Node2</title>
<g id="a_Node000002"><a xlink:href="group__uvis25__link__driver.html" target="_top" xlink:title="uvis25 link driver modules">
<polygon fill="white" stroke="#666666" points="245.75,-82 156.25,-82 156.25,-50 245.75,-50 245.75,-82"/>
<text xml:space="preserve" text-anchor="start" x="164.25" y="-68.5" font-family="Helvetica,sans-Serif" font-size="10.00">uvis25 link driver</text>
<text xml:space="preserve" text-anchor="middle" x="201" y="-56.5" font-family="Helvetica,sans-Serif" font-size="10.00"> function</text>
</a>
</g>
</g>
<!-- Node1&#45;&gt;Node2 -->
<g id="edge1" class="edge">
<title>Node1&#45;&gt;Node2</title>
<path fill="none" stroke="black" d="M73.89,-148C91.22,-131.7 118.41,-107.74 145,-91 149.79,-87.98 155.01,-85.12 160.26,-82.49"/>
<polygon fill="black" stroke="black" points="71.69,-145.27 66.88,-154.71 76.53,-150.33 71.69,-145.27"/>
</g>
<!-- Node8 -->
<g id="Node000008" class="node">
<title>Node8</title>
<g id="a_Node000008"><a xlink:href="group__uvis25__test__driver.html" target="_top" xlink:title="uvis25 test driver modules">
<polygon fill="white" stroke="#666666" points="246.5,-32 155.5,-32 155.5,0 246.5,0 246.5,-32"/>
<text xml:space="preserve" text-anchor="start" x="163.5" y="-18.5" font-family="Helvetica,sans-Serif" font-size="10.00">uvis25 test driver</text>
<text xml:space="preserve" text-anchor="middle" x="201" y="-6.5" font-family="Helvetica,sans-Serif" font-size="10.00"> function</text>
</a>
</g>
</g>
<!-- Node1&#45;&gt;Node8 -->
<g id="edge7" class="edge">
<title>Node1&#45;&gt;Node8</title>
<path fill="none" stroke="black" d="M65.68,-145.65C80.09,-118.61 108.76,-70.79 145,-41 148.89,-37.8 153.25,-34.93 157.78,-32.36"/>
<polygon fill="black" stroke="black" points="62.74,-143.71 61.25,-154.19 68.96,-146.93 62.74,-143.71"/>
</g>
</g>
</svg>
